<mxfile host="app.diagrams.net" modified="2024-01-05T08:10:42.756Z" agent="Mozilla/5.0 (Windows NT 10.0; Win64; x64) AppleWebKit/537.36 (KHTML, like Gecko) Chrome/120.0.0.0 Safari/537.36" etag="ViqQS7BoTxMITPwGrtMb" version="22.1.16" type="device">
  <diagram id="C5RBs43oDa-KdzZeNtuy" name="Page-1">
    <mxGraphModel dx="1760" dy="1860" grid="1" gridSize="10" guides="1" tooltips="1" connect="1" arrows="1" fold="1" page="1" pageScale="1" pageWidth="827" pageHeight="1169" math="0" shadow="0">
      <root>
        <mxCell id="WIyWlLk6GJQsqaUBKTNV-0" />
        <mxCell id="WIyWlLk6GJQsqaUBKTNV-1" parent="WIyWlLk6GJQsqaUBKTNV-0" />
        <mxCell id="vF1I7pQP9UA65ckvUODu-4" value="" style="edgeStyle=orthogonalEdgeStyle;rounded=0;orthogonalLoop=1;jettySize=auto;html=1;" parent="WIyWlLk6GJQsqaUBKTNV-1" source="WIyWlLk6GJQsqaUBKTNV-3" target="WIyWlLk6GJQsqaUBKTNV-6" edge="1">
          <mxGeometry relative="1" as="geometry" />
        </mxCell>
        <mxCell id="WIyWlLk6GJQsqaUBKTNV-3" value="시작" style="rounded=1;whiteSpace=wrap;html=1;fontSize=12;glass=0;strokeWidth=1;shadow=0;" parent="WIyWlLk6GJQsqaUBKTNV-1" vertex="1">
          <mxGeometry x="1715.97" y="70" width="120" height="40" as="geometry" />
        </mxCell>
        <mxCell id="vF1I7pQP9UA65ckvUODu-1" value="" style="edgeStyle=orthogonalEdgeStyle;rounded=0;orthogonalLoop=1;jettySize=auto;html=1;exitX=1;exitY=0.5;exitDx=0;exitDy=0;" parent="WIyWlLk6GJQsqaUBKTNV-1" source="WIyWlLk6GJQsqaUBKTNV-6" edge="1">
          <mxGeometry relative="1" as="geometry">
            <mxPoint x="1816.03" y="280" as="targetPoint" />
            <Array as="points">
              <mxPoint x="1846" y="185" />
              <mxPoint x="1846" y="250" />
              <mxPoint x="1816" y="250" />
            </Array>
          </mxGeometry>
        </mxCell>
        <mxCell id="WIyWlLk6GJQsqaUBKTNV-6" value="매장 / 포장" style="rhombus;whiteSpace=wrap;html=1;shadow=0;fontFamily=Helvetica;fontSize=12;align=center;strokeWidth=1;spacing=6;spacingTop=-4;" parent="WIyWlLk6GJQsqaUBKTNV-1" vertex="1">
          <mxGeometry x="1725.97" y="150" width="100" height="70" as="geometry" />
        </mxCell>
        <mxCell id="WIyWlLk6GJQsqaUBKTNV-11" value="종료" style="rounded=1;whiteSpace=wrap;html=1;fontSize=12;glass=0;strokeWidth=1;shadow=0;" parent="WIyWlLk6GJQsqaUBKTNV-1" vertex="1">
          <mxGeometry x="1726.7699999999998" y="3280" width="184.06" height="50" as="geometry" />
        </mxCell>
        <mxCell id="vF1I7pQP9UA65ckvUODu-11" value="" style="edgeStyle=orthogonalEdgeStyle;rounded=0;orthogonalLoop=1;jettySize=auto;html=1;entryX=0.5;entryY=0;entryDx=0;entryDy=0;exitX=0.25;exitY=1;exitDx=0;exitDy=0;" parent="WIyWlLk6GJQsqaUBKTNV-1" source="vF1I7pQP9UA65ckvUODu-18" target="vF1I7pQP9UA65ckvUODu-32" edge="1">
          <mxGeometry relative="1" as="geometry">
            <mxPoint x="1775.97" y="330" as="sourcePoint" />
            <mxPoint x="1776.0588235294117" y="380" as="targetPoint" />
            <Array as="points">
              <mxPoint x="1730" y="340" />
              <mxPoint x="1730" y="370" />
            </Array>
          </mxGeometry>
        </mxCell>
        <mxCell id="vF1I7pQP9UA65ckvUODu-215" style="edgeStyle=orthogonalEdgeStyle;rounded=0;orthogonalLoop=1;jettySize=auto;html=1;exitX=0.75;exitY=1;exitDx=0;exitDy=0;entryX=0.5;entryY=0;entryDx=0;entryDy=0;" parent="WIyWlLk6GJQsqaUBKTNV-1" source="vF1I7pQP9UA65ckvUODu-18" target="vF1I7pQP9UA65ckvUODu-217" edge="1">
          <mxGeometry relative="1" as="geometry">
            <mxPoint x="1816" y="1760" as="targetPoint" />
          </mxGeometry>
        </mxCell>
        <mxCell id="vF1I7pQP9UA65ckvUODu-18" value="카테고리 출력" style="shape=parallelogram;perimeter=parallelogramPerimeter;whiteSpace=wrap;html=1;fixedSize=1;" parent="WIyWlLk6GJQsqaUBKTNV-1" vertex="1">
          <mxGeometry x="1696" y="280" width="159.94" height="60" as="geometry" />
        </mxCell>
        <mxCell id="vF1I7pQP9UA65ckvUODu-20" style="edgeStyle=orthogonalEdgeStyle;rounded=0;orthogonalLoop=1;jettySize=auto;html=1;exitX=0;exitY=0.5;exitDx=0;exitDy=0;entryX=0.301;entryY=0.018;entryDx=0;entryDy=0;entryPerimeter=0;" parent="WIyWlLk6GJQsqaUBKTNV-1" source="WIyWlLk6GJQsqaUBKTNV-6" target="vF1I7pQP9UA65ckvUODu-18" edge="1">
          <mxGeometry relative="1" as="geometry" />
        </mxCell>
        <mxCell id="vF1I7pQP9UA65ckvUODu-30" value="매장" style="text;html=1;strokeColor=none;fillColor=none;align=center;verticalAlign=middle;whiteSpace=wrap;rounded=0;" parent="WIyWlLk6GJQsqaUBKTNV-1" vertex="1">
          <mxGeometry x="1696" y="220" width="60" height="30" as="geometry" />
        </mxCell>
        <mxCell id="vF1I7pQP9UA65ckvUODu-31" value="포장" style="text;html=1;strokeColor=none;fillColor=none;align=center;verticalAlign=middle;whiteSpace=wrap;rounded=0;" parent="WIyWlLk6GJQsqaUBKTNV-1" vertex="1">
          <mxGeometry x="1795.94" y="220" width="60" height="30" as="geometry" />
        </mxCell>
        <mxCell id="vF1I7pQP9UA65ckvUODu-34" style="edgeStyle=orthogonalEdgeStyle;rounded=0;orthogonalLoop=1;jettySize=auto;html=1;exitX=0;exitY=0.5;exitDx=0;exitDy=0;entryX=0;entryY=0.5;entryDx=0;entryDy=0;" parent="WIyWlLk6GJQsqaUBKTNV-1" source="vF1I7pQP9UA65ckvUODu-32" target="WIyWlLk6GJQsqaUBKTNV-3" edge="1">
          <mxGeometry relative="1" as="geometry">
            <Array as="points">
              <mxPoint x="1606" y="410" />
              <mxPoint x="1606" y="90" />
            </Array>
          </mxGeometry>
        </mxCell>
        <mxCell id="vF1I7pQP9UA65ckvUODu-42" style="edgeStyle=orthogonalEdgeStyle;rounded=0;orthogonalLoop=1;jettySize=auto;html=1;exitX=0.5;exitY=1;exitDx=0;exitDy=0;entryX=0.5;entryY=0;entryDx=0;entryDy=0;" parent="WIyWlLk6GJQsqaUBKTNV-1" source="vF1I7pQP9UA65ckvUODu-32" target="vF1I7pQP9UA65ckvUODu-39" edge="1">
          <mxGeometry relative="1" as="geometry" />
        </mxCell>
        <mxCell id="vF1I7pQP9UA65ckvUODu-43" style="edgeStyle=orthogonalEdgeStyle;rounded=0;orthogonalLoop=1;jettySize=auto;html=1;exitX=0.5;exitY=1;exitDx=0;exitDy=0;entryX=0.5;entryY=0;entryDx=0;entryDy=0;" parent="WIyWlLk6GJQsqaUBKTNV-1" source="vF1I7pQP9UA65ckvUODu-32" target="vF1I7pQP9UA65ckvUODu-40" edge="1">
          <mxGeometry relative="1" as="geometry" />
        </mxCell>
        <mxCell id="vF1I7pQP9UA65ckvUODu-44" style="edgeStyle=orthogonalEdgeStyle;rounded=0;orthogonalLoop=1;jettySize=auto;html=1;exitX=0.5;exitY=1;exitDx=0;exitDy=0;entryX=0.5;entryY=0;entryDx=0;entryDy=0;" parent="WIyWlLk6GJQsqaUBKTNV-1" source="vF1I7pQP9UA65ckvUODu-32" target="vF1I7pQP9UA65ckvUODu-41" edge="1">
          <mxGeometry relative="1" as="geometry" />
        </mxCell>
        <mxCell id="vF1I7pQP9UA65ckvUODu-45" style="edgeStyle=orthogonalEdgeStyle;rounded=0;orthogonalLoop=1;jettySize=auto;html=1;exitX=0.5;exitY=1;exitDx=0;exitDy=0;entryX=0.5;entryY=0;entryDx=0;entryDy=0;" parent="WIyWlLk6GJQsqaUBKTNV-1" source="vF1I7pQP9UA65ckvUODu-32" target="vF1I7pQP9UA65ckvUODu-37" edge="1">
          <mxGeometry relative="1" as="geometry" />
        </mxCell>
        <mxCell id="vF1I7pQP9UA65ckvUODu-32" value="카테고리 / 이전" style="rhombus;whiteSpace=wrap;html=1;" parent="WIyWlLk6GJQsqaUBKTNV-1" vertex="1">
          <mxGeometry x="1660" y="370" width="140" height="80" as="geometry" />
        </mxCell>
        <mxCell id="vF1I7pQP9UA65ckvUODu-33" value="이전" style="text;html=1;strokeColor=none;fillColor=none;align=center;verticalAlign=middle;whiteSpace=wrap;rounded=0;" parent="WIyWlLk6GJQsqaUBKTNV-1" vertex="1">
          <mxGeometry x="1600" y="380" width="60" height="30" as="geometry" />
        </mxCell>
        <mxCell id="vF1I7pQP9UA65ckvUODu-51" value="" style="edgeStyle=orthogonalEdgeStyle;rounded=0;orthogonalLoop=1;jettySize=auto;html=1;" parent="WIyWlLk6GJQsqaUBKTNV-1" source="vF1I7pQP9UA65ckvUODu-37" target="vF1I7pQP9UA65ckvUODu-50" edge="1">
          <mxGeometry relative="1" as="geometry" />
        </mxCell>
        <mxCell id="vF1I7pQP9UA65ckvUODu-37" value="버거&amp;amp;세트" style="shape=parallelogram;perimeter=parallelogramPerimeter;whiteSpace=wrap;html=1;fixedSize=1;" parent="WIyWlLk6GJQsqaUBKTNV-1" vertex="1">
          <mxGeometry x="749.97" y="520" width="120" height="60" as="geometry" />
        </mxCell>
        <mxCell id="vF1I7pQP9UA65ckvUODu-214" style="edgeStyle=orthogonalEdgeStyle;rounded=0;orthogonalLoop=1;jettySize=auto;html=1;exitX=0.5;exitY=1;exitDx=0;exitDy=0;entryX=0.5;entryY=0;entryDx=0;entryDy=0;" parent="WIyWlLk6GJQsqaUBKTNV-1" source="vF1I7pQP9UA65ckvUODu-39" target="vF1I7pQP9UA65ckvUODu-213" edge="1">
          <mxGeometry relative="1" as="geometry" />
        </mxCell>
        <mxCell id="vF1I7pQP9UA65ckvUODu-39" value="추천메뉴" style="shape=parallelogram;perimeter=parallelogramPerimeter;whiteSpace=wrap;html=1;fixedSize=1;" parent="WIyWlLk6GJQsqaUBKTNV-1" vertex="1">
          <mxGeometry x="2462.49" y="520" width="120" height="60" as="geometry" />
        </mxCell>
        <mxCell id="vF1I7pQP9UA65ckvUODu-102" value="" style="edgeStyle=orthogonalEdgeStyle;rounded=0;orthogonalLoop=1;jettySize=auto;html=1;" parent="WIyWlLk6GJQsqaUBKTNV-1" source="vF1I7pQP9UA65ckvUODu-40" target="vF1I7pQP9UA65ckvUODu-101" edge="1">
          <mxGeometry relative="1" as="geometry" />
        </mxCell>
        <mxCell id="vF1I7pQP9UA65ckvUODu-40" value="사이드" style="shape=parallelogram;perimeter=parallelogramPerimeter;whiteSpace=wrap;html=1;fixedSize=1;" parent="WIyWlLk6GJQsqaUBKTNV-1" vertex="1">
          <mxGeometry x="1450" y="520" width="120" height="60" as="geometry" />
        </mxCell>
        <mxCell id="vF1I7pQP9UA65ckvUODu-149" value="" style="edgeStyle=orthogonalEdgeStyle;rounded=0;orthogonalLoop=1;jettySize=auto;html=1;" parent="WIyWlLk6GJQsqaUBKTNV-1" source="vF1I7pQP9UA65ckvUODu-41" target="vF1I7pQP9UA65ckvUODu-148" edge="1">
          <mxGeometry relative="1" as="geometry" />
        </mxCell>
        <mxCell id="vF1I7pQP9UA65ckvUODu-41" value="음료&amp;amp;커피" style="shape=parallelogram;perimeter=parallelogramPerimeter;whiteSpace=wrap;html=1;fixedSize=1;" parent="WIyWlLk6GJQsqaUBKTNV-1" vertex="1">
          <mxGeometry x="2049.97" y="520" width="120" height="60" as="geometry" />
        </mxCell>
        <mxCell id="vF1I7pQP9UA65ckvUODu-53" style="edgeStyle=orthogonalEdgeStyle;rounded=0;orthogonalLoop=1;jettySize=auto;html=1;entryX=0;entryY=0.5;entryDx=0;entryDy=0;" parent="WIyWlLk6GJQsqaUBKTNV-1" source="vF1I7pQP9UA65ckvUODu-47" target="vF1I7pQP9UA65ckvUODu-37" edge="1">
          <mxGeometry relative="1" as="geometry">
            <Array as="points">
              <mxPoint x="670" y="780" />
              <mxPoint x="670" y="550" />
            </Array>
          </mxGeometry>
        </mxCell>
        <mxCell id="vF1I7pQP9UA65ckvUODu-47" value="세트 / 단품 / 이전" style="rhombus;whiteSpace=wrap;html=1;" parent="WIyWlLk6GJQsqaUBKTNV-1" vertex="1">
          <mxGeometry x="729.99" y="740" width="159.97" height="80" as="geometry" />
        </mxCell>
        <mxCell id="vF1I7pQP9UA65ckvUODu-52" value="" style="edgeStyle=orthogonalEdgeStyle;rounded=0;orthogonalLoop=1;jettySize=auto;html=1;" parent="WIyWlLk6GJQsqaUBKTNV-1" source="vF1I7pQP9UA65ckvUODu-50" target="vF1I7pQP9UA65ckvUODu-47" edge="1">
          <mxGeometry relative="1" as="geometry" />
        </mxCell>
        <mxCell id="vF1I7pQP9UA65ckvUODu-50" value="메뉴 목록 출력&lt;br&gt;/ 메뉴 선택" style="shape=parallelogram;perimeter=parallelogramPerimeter;whiteSpace=wrap;html=1;fixedSize=1;" parent="WIyWlLk6GJQsqaUBKTNV-1" vertex="1">
          <mxGeometry x="749.97" y="630" width="120" height="60" as="geometry" />
        </mxCell>
        <mxCell id="vF1I7pQP9UA65ckvUODu-54" value="이전" style="text;html=1;strokeColor=none;fillColor=none;align=center;verticalAlign=middle;whiteSpace=wrap;rounded=0;" parent="WIyWlLk6GJQsqaUBKTNV-1" vertex="1">
          <mxGeometry x="680" y="750" width="60" height="30" as="geometry" />
        </mxCell>
        <mxCell id="vF1I7pQP9UA65ckvUODu-170" value="" style="edgeStyle=orthogonalEdgeStyle;rounded=0;orthogonalLoop=1;jettySize=auto;html=1;" parent="WIyWlLk6GJQsqaUBKTNV-1" source="vF1I7pQP9UA65ckvUODu-55" target="vF1I7pQP9UA65ckvUODu-169" edge="1">
          <mxGeometry relative="1" as="geometry" />
        </mxCell>
        <mxCell id="vF1I7pQP9UA65ckvUODu-55" value="재료 추가 / 변경" style="shape=parallelogram;perimeter=parallelogramPerimeter;whiteSpace=wrap;html=1;fixedSize=1;" parent="WIyWlLk6GJQsqaUBKTNV-1" vertex="1">
          <mxGeometry x="540" y="1050" width="130" height="60" as="geometry" />
        </mxCell>
        <mxCell id="vF1I7pQP9UA65ckvUODu-57" value="사이드 선택" style="shape=parallelogram;perimeter=parallelogramPerimeter;whiteSpace=wrap;html=1;fixedSize=1;" parent="WIyWlLk6GJQsqaUBKTNV-1" vertex="1">
          <mxGeometry x="860.9950000000001" y="1220" width="120" height="60" as="geometry" />
        </mxCell>
        <mxCell id="vF1I7pQP9UA65ckvUODu-61" style="edgeStyle=orthogonalEdgeStyle;rounded=0;orthogonalLoop=1;jettySize=auto;html=1;exitX=0.5;exitY=1;exitDx=0;exitDy=0;entryX=0.5;entryY=0;entryDx=0;entryDy=0;" parent="WIyWlLk6GJQsqaUBKTNV-1" source="vF1I7pQP9UA65ckvUODu-47" target="vF1I7pQP9UA65ckvUODu-178" edge="1">
          <mxGeometry relative="1" as="geometry">
            <Array as="points">
              <mxPoint x="810" y="860" />
              <mxPoint x="690" y="860" />
            </Array>
          </mxGeometry>
        </mxCell>
        <mxCell id="vF1I7pQP9UA65ckvUODu-62" value="음료 선택" style="shape=parallelogram;perimeter=parallelogramPerimeter;whiteSpace=wrap;html=1;fixedSize=1;" parent="WIyWlLk6GJQsqaUBKTNV-1" vertex="1">
          <mxGeometry x="861" y="1340" width="120" height="60" as="geometry" />
        </mxCell>
        <mxCell id="vF1I7pQP9UA65ckvUODu-63" style="edgeStyle=orthogonalEdgeStyle;rounded=0;orthogonalLoop=1;jettySize=auto;html=1;exitX=0.5;exitY=1;exitDx=0;exitDy=0;entryX=0.5;entryY=0;entryDx=0;entryDy=0;" parent="WIyWlLk6GJQsqaUBKTNV-1" source="vF1I7pQP9UA65ckvUODu-57" target="vF1I7pQP9UA65ckvUODu-62" edge="1">
          <mxGeometry relative="1" as="geometry" />
        </mxCell>
        <mxCell id="vF1I7pQP9UA65ckvUODu-93" style="edgeStyle=orthogonalEdgeStyle;rounded=0;orthogonalLoop=1;jettySize=auto;html=1;exitX=0;exitY=0.5;exitDx=0;exitDy=0;entryX=0;entryY=0.5;entryDx=0;entryDy=0;" parent="WIyWlLk6GJQsqaUBKTNV-1" source="vF1I7pQP9UA65ckvUODu-65" target="vF1I7pQP9UA65ckvUODu-37" edge="1">
          <mxGeometry relative="1" as="geometry">
            <mxPoint x="720.0000000000002" y="550" as="targetPoint" />
            <mxPoint x="655.0000000000002" y="1625" as="sourcePoint" />
            <Array as="points">
              <mxPoint x="330" y="1935" />
              <mxPoint x="330" y="550" />
            </Array>
          </mxGeometry>
        </mxCell>
        <mxCell id="vF1I7pQP9UA65ckvUODu-94" style="edgeStyle=orthogonalEdgeStyle;rounded=0;orthogonalLoop=1;jettySize=auto;html=1;entryX=0;entryY=0.5;entryDx=0;entryDy=0;exitX=0.5;exitY=1;exitDx=0;exitDy=0;" parent="WIyWlLk6GJQsqaUBKTNV-1" source="vF1I7pQP9UA65ckvUODu-97" target="vF1I7pQP9UA65ckvUODu-18" edge="1">
          <mxGeometry relative="1" as="geometry">
            <mxPoint x="690" y="1780" as="sourcePoint" />
            <Array as="points">
              <mxPoint x="790" y="2120" />
              <mxPoint x="230" y="2120" />
              <mxPoint x="230" y="310" />
            </Array>
          </mxGeometry>
        </mxCell>
        <mxCell id="vF1I7pQP9UA65ckvUODu-98" value="" style="edgeStyle=orthogonalEdgeStyle;rounded=0;orthogonalLoop=1;jettySize=auto;html=1;" parent="WIyWlLk6GJQsqaUBKTNV-1" source="vF1I7pQP9UA65ckvUODu-65" target="vF1I7pQP9UA65ckvUODu-97" edge="1">
          <mxGeometry relative="1" as="geometry" />
        </mxCell>
        <mxCell id="vF1I7pQP9UA65ckvUODu-65" value="완료 / 취소" style="rhombus;whiteSpace=wrap;html=1;" parent="WIyWlLk6GJQsqaUBKTNV-1" vertex="1">
          <mxGeometry x="701" y="1890" width="180" height="90" as="geometry" />
        </mxCell>
        <mxCell id="vF1I7pQP9UA65ckvUODu-172" style="edgeStyle=orthogonalEdgeStyle;rounded=0;orthogonalLoop=1;jettySize=auto;html=1;exitX=0.5;exitY=1;exitDx=0;exitDy=0;entryX=0.5;entryY=0;entryDx=0;entryDy=0;" parent="WIyWlLk6GJQsqaUBKTNV-1" source="vF1I7pQP9UA65ckvUODu-68" target="vF1I7pQP9UA65ckvUODu-171" edge="1">
          <mxGeometry relative="1" as="geometry" />
        </mxCell>
        <mxCell id="vF1I7pQP9UA65ckvUODu-68" value="재료 추가 / 변경" style="shape=parallelogram;perimeter=parallelogramPerimeter;whiteSpace=wrap;html=1;fixedSize=1;" parent="WIyWlLk6GJQsqaUBKTNV-1" vertex="1">
          <mxGeometry x="941" y="980" width="130" height="60" as="geometry" />
        </mxCell>
        <mxCell id="vF1I7pQP9UA65ckvUODu-74" value="단품" style="text;html=1;strokeColor=none;fillColor=none;align=center;verticalAlign=middle;whiteSpace=wrap;rounded=0;" parent="WIyWlLk6GJQsqaUBKTNV-1" vertex="1">
          <mxGeometry x="749.97" y="825" width="60" height="30" as="geometry" />
        </mxCell>
        <mxCell id="vF1I7pQP9UA65ckvUODu-89" style="edgeStyle=orthogonalEdgeStyle;rounded=0;orthogonalLoop=1;jettySize=auto;html=1;exitX=0.5;exitY=1;exitDx=0;exitDy=0;entryX=0.5;entryY=0;entryDx=0;entryDy=0;" parent="WIyWlLk6GJQsqaUBKTNV-1" source="vF1I7pQP9UA65ckvUODu-78" target="vF1I7pQP9UA65ckvUODu-65" edge="1">
          <mxGeometry relative="1" as="geometry" />
        </mxCell>
        <mxCell id="vF1I7pQP9UA65ckvUODu-90" style="edgeStyle=orthogonalEdgeStyle;rounded=0;orthogonalLoop=1;jettySize=auto;html=1;exitX=1;exitY=0.5;exitDx=0;exitDy=0;entryX=0.5;entryY=0;entryDx=0;entryDy=0;" parent="WIyWlLk6GJQsqaUBKTNV-1" source="vF1I7pQP9UA65ckvUODu-78" target="vF1I7pQP9UA65ckvUODu-85" edge="1">
          <mxGeometry relative="1" as="geometry" />
        </mxCell>
        <mxCell id="vF1I7pQP9UA65ckvUODu-78" value="선택 / 선택 안함" style="rhombus;whiteSpace=wrap;html=1;" parent="WIyWlLk6GJQsqaUBKTNV-1" vertex="1">
          <mxGeometry x="713.5" y="1690" width="155" height="80" as="geometry" />
        </mxCell>
        <mxCell id="vF1I7pQP9UA65ckvUODu-83" style="edgeStyle=orthogonalEdgeStyle;rounded=0;orthogonalLoop=1;jettySize=auto;html=1;exitX=0;exitY=0.5;exitDx=0;exitDy=0;entryX=0;entryY=0.5;entryDx=0;entryDy=0;" parent="WIyWlLk6GJQsqaUBKTNV-1" source="vF1I7pQP9UA65ckvUODu-80" target="vF1I7pQP9UA65ckvUODu-37" edge="1">
          <mxGeometry relative="1" as="geometry">
            <Array as="points">
              <mxPoint x="400" y="1500" />
              <mxPoint x="400" y="550" />
            </Array>
          </mxGeometry>
        </mxCell>
        <mxCell id="vF1I7pQP9UA65ckvUODu-87" value="" style="edgeStyle=orthogonalEdgeStyle;rounded=0;orthogonalLoop=1;jettySize=auto;html=1;" parent="WIyWlLk6GJQsqaUBKTNV-1" source="vF1I7pQP9UA65ckvUODu-80" target="vF1I7pQP9UA65ckvUODu-84" edge="1">
          <mxGeometry relative="1" as="geometry" />
        </mxCell>
        <mxCell id="vF1I7pQP9UA65ckvUODu-80" value="완료 / 취소" style="rhombus;whiteSpace=wrap;html=1;" parent="WIyWlLk6GJQsqaUBKTNV-1" vertex="1">
          <mxGeometry x="698.49" y="1460" width="185.02" height="80" as="geometry" />
        </mxCell>
        <mxCell id="vF1I7pQP9UA65ckvUODu-88" value="" style="edgeStyle=orthogonalEdgeStyle;rounded=0;orthogonalLoop=1;jettySize=auto;html=1;" parent="WIyWlLk6GJQsqaUBKTNV-1" source="vF1I7pQP9UA65ckvUODu-84" target="vF1I7pQP9UA65ckvUODu-78" edge="1">
          <mxGeometry relative="1" as="geometry" />
        </mxCell>
        <mxCell id="vF1I7pQP9UA65ckvUODu-84" value="추가 메뉴" style="shape=parallelogram;perimeter=parallelogramPerimeter;whiteSpace=wrap;html=1;fixedSize=1;" parent="WIyWlLk6GJQsqaUBKTNV-1" vertex="1">
          <mxGeometry x="731" y="1580" width="120" height="60" as="geometry" />
        </mxCell>
        <mxCell id="vF1I7pQP9UA65ckvUODu-92" style="edgeStyle=orthogonalEdgeStyle;rounded=0;orthogonalLoop=1;jettySize=auto;html=1;exitX=0.5;exitY=1;exitDx=0;exitDy=0;entryX=0.622;entryY=0.102;entryDx=0;entryDy=0;entryPerimeter=0;" parent="WIyWlLk6GJQsqaUBKTNV-1" source="vF1I7pQP9UA65ckvUODu-85" target="vF1I7pQP9UA65ckvUODu-65" edge="1">
          <mxGeometry relative="1" as="geometry" />
        </mxCell>
        <mxCell id="vF1I7pQP9UA65ckvUODu-85" value="해당 메뉴 추가" style="shape=parallelogram;perimeter=parallelogramPerimeter;whiteSpace=wrap;html=1;fixedSize=1;" parent="WIyWlLk6GJQsqaUBKTNV-1" vertex="1">
          <mxGeometry x="886" y="1770" width="120" height="60" as="geometry" />
        </mxCell>
        <mxCell id="vF1I7pQP9UA65ckvUODu-86" value="취소" style="text;html=1;strokeColor=none;fillColor=none;align=center;verticalAlign=middle;whiteSpace=wrap;rounded=0;" parent="WIyWlLk6GJQsqaUBKTNV-1" vertex="1">
          <mxGeometry x="640" y="1460" width="60" height="30" as="geometry" />
        </mxCell>
        <mxCell id="vF1I7pQP9UA65ckvUODu-95" value="선택" style="text;html=1;strokeColor=none;fillColor=none;align=center;verticalAlign=middle;whiteSpace=wrap;rounded=0;" parent="WIyWlLk6GJQsqaUBKTNV-1" vertex="1">
          <mxGeometry x="856" y="1700" width="60" height="30" as="geometry" />
        </mxCell>
        <mxCell id="vF1I7pQP9UA65ckvUODu-96" value="선택 안함" style="text;html=1;strokeColor=none;fillColor=none;align=center;verticalAlign=middle;whiteSpace=wrap;rounded=0;" parent="WIyWlLk6GJQsqaUBKTNV-1" vertex="1">
          <mxGeometry x="726" y="1770" width="60" height="30" as="geometry" />
        </mxCell>
        <mxCell id="vF1I7pQP9UA65ckvUODu-97" value="장바구니에 추가" style="shape=parallelogram;perimeter=parallelogramPerimeter;whiteSpace=wrap;html=1;fixedSize=1;" parent="WIyWlLk6GJQsqaUBKTNV-1" vertex="1">
          <mxGeometry x="709.75" y="2034" width="162.5" height="60" as="geometry" />
        </mxCell>
        <mxCell id="vF1I7pQP9UA65ckvUODu-103" style="edgeStyle=orthogonalEdgeStyle;rounded=0;orthogonalLoop=1;jettySize=auto;html=1;entryX=0;entryY=0.5;entryDx=0;entryDy=0;exitX=0;exitY=0.5;exitDx=0;exitDy=0;" parent="WIyWlLk6GJQsqaUBKTNV-1" source="vF1I7pQP9UA65ckvUODu-101" target="vF1I7pQP9UA65ckvUODu-18" edge="1">
          <mxGeometry relative="1" as="geometry">
            <Array as="points">
              <mxPoint x="1330" y="670" />
              <mxPoint x="1330" y="310" />
            </Array>
          </mxGeometry>
        </mxCell>
        <mxCell id="vF1I7pQP9UA65ckvUODu-108" value="" style="edgeStyle=orthogonalEdgeStyle;rounded=0;orthogonalLoop=1;jettySize=auto;html=1;" parent="WIyWlLk6GJQsqaUBKTNV-1" source="vF1I7pQP9UA65ckvUODu-101" target="vF1I7pQP9UA65ckvUODu-107" edge="1">
          <mxGeometry relative="1" as="geometry" />
        </mxCell>
        <mxCell id="vF1I7pQP9UA65ckvUODu-101" value="카테고리 선택 / 이전" style="rhombus;whiteSpace=wrap;html=1;" parent="WIyWlLk6GJQsqaUBKTNV-1" vertex="1">
          <mxGeometry x="1407.5" y="630" width="205" height="80" as="geometry" />
        </mxCell>
        <mxCell id="vF1I7pQP9UA65ckvUODu-104" value="취소" style="text;html=1;strokeColor=none;fillColor=none;align=center;verticalAlign=middle;whiteSpace=wrap;rounded=0;" parent="WIyWlLk6GJQsqaUBKTNV-1" vertex="1">
          <mxGeometry x="649.75" y="1890" width="60" height="30" as="geometry" />
        </mxCell>
        <mxCell id="vF1I7pQP9UA65ckvUODu-105" value="완료" style="text;html=1;strokeColor=none;fillColor=none;align=center;verticalAlign=middle;whiteSpace=wrap;rounded=0;" parent="WIyWlLk6GJQsqaUBKTNV-1" vertex="1">
          <mxGeometry x="796" y="1980" width="60" height="30" as="geometry" />
        </mxCell>
        <mxCell id="vF1I7pQP9UA65ckvUODu-106" value="이전" style="text;html=1;strokeColor=none;fillColor=none;align=center;verticalAlign=middle;whiteSpace=wrap;rounded=0;" parent="WIyWlLk6GJQsqaUBKTNV-1" vertex="1">
          <mxGeometry x="1347.5" y="630" width="60" height="30" as="geometry" />
        </mxCell>
        <mxCell id="vF1I7pQP9UA65ckvUODu-143" style="edgeStyle=orthogonalEdgeStyle;rounded=0;orthogonalLoop=1;jettySize=auto;html=1;exitX=0.5;exitY=1;exitDx=0;exitDy=0;entryX=0.5;entryY=0;entryDx=0;entryDy=0;" parent="WIyWlLk6GJQsqaUBKTNV-1" source="vF1I7pQP9UA65ckvUODu-107" target="vF1I7pQP9UA65ckvUODu-140" edge="1">
          <mxGeometry relative="1" as="geometry" />
        </mxCell>
        <mxCell id="vF1I7pQP9UA65ckvUODu-107" value="메뉴 목록 출력" style="shape=parallelogram;perimeter=parallelogramPerimeter;whiteSpace=wrap;html=1;fixedSize=1;" parent="WIyWlLk6GJQsqaUBKTNV-1" vertex="1">
          <mxGeometry x="1440" y="750" width="140" height="60" as="geometry" />
        </mxCell>
        <mxCell id="vF1I7pQP9UA65ckvUODu-111" style="edgeStyle=orthogonalEdgeStyle;rounded=0;orthogonalLoop=1;jettySize=auto;html=1;exitX=0;exitY=0.5;exitDx=0;exitDy=0;entryX=0;entryY=0.5;entryDx=0;entryDy=0;" parent="WIyWlLk6GJQsqaUBKTNV-1" source="vF1I7pQP9UA65ckvUODu-109" target="vF1I7pQP9UA65ckvUODu-107" edge="1">
          <mxGeometry relative="1" as="geometry">
            <Array as="points">
              <mxPoint x="1360" y="985" />
              <mxPoint x="1360" y="780" />
            </Array>
          </mxGeometry>
        </mxCell>
        <mxCell id="vF1I7pQP9UA65ckvUODu-120" style="edgeStyle=orthogonalEdgeStyle;rounded=0;orthogonalLoop=1;jettySize=auto;html=1;exitX=0.5;exitY=1;exitDx=0;exitDy=0;entryX=0.5;entryY=0;entryDx=0;entryDy=0;" parent="WIyWlLk6GJQsqaUBKTNV-1" source="vF1I7pQP9UA65ckvUODu-109" target="vF1I7pQP9UA65ckvUODu-118" edge="1">
          <mxGeometry relative="1" as="geometry" />
        </mxCell>
        <mxCell id="vF1I7pQP9UA65ckvUODu-109" value="구성 선택 / 취소" style="rhombus;whiteSpace=wrap;html=1;" parent="WIyWlLk6GJQsqaUBKTNV-1" vertex="1">
          <mxGeometry x="1420" y="940" width="180" height="90" as="geometry" />
        </mxCell>
        <mxCell id="vF1I7pQP9UA65ckvUODu-112" value="취소" style="text;html=1;strokeColor=none;fillColor=none;align=center;verticalAlign=middle;whiteSpace=wrap;rounded=0;" parent="WIyWlLk6GJQsqaUBKTNV-1" vertex="1">
          <mxGeometry x="1370" y="950" width="60" height="30" as="geometry" />
        </mxCell>
        <mxCell id="vF1I7pQP9UA65ckvUODu-116" value="" style="edgeStyle=orthogonalEdgeStyle;rounded=0;orthogonalLoop=1;jettySize=auto;html=1;entryX=0.5;entryY=0;entryDx=0;entryDy=0;" parent="WIyWlLk6GJQsqaUBKTNV-1" source="vF1I7pQP9UA65ckvUODu-113" target="vF1I7pQP9UA65ckvUODu-117" edge="1">
          <mxGeometry relative="1" as="geometry">
            <mxPoint x="1320" y="1250" as="targetPoint" />
            <Array as="points">
              <mxPoint x="1320" y="1235" />
              <mxPoint x="1321" y="1320" />
            </Array>
          </mxGeometry>
        </mxCell>
        <mxCell id="vF1I7pQP9UA65ckvUODu-113" value="재료 추가/변경" style="shape=parallelogram;perimeter=parallelogramPerimeter;whiteSpace=wrap;html=1;fixedSize=1;" parent="WIyWlLk6GJQsqaUBKTNV-1" vertex="1">
          <mxGeometry x="1260" y="1180" width="120" height="40" as="geometry" />
        </mxCell>
        <mxCell id="vF1I7pQP9UA65ckvUODu-121" style="edgeStyle=orthogonalEdgeStyle;rounded=0;orthogonalLoop=1;jettySize=auto;html=1;exitX=0;exitY=0.5;exitDx=0;exitDy=0;entryX=0;entryY=0.5;entryDx=0;entryDy=0;" parent="WIyWlLk6GJQsqaUBKTNV-1" source="vF1I7pQP9UA65ckvUODu-117" target="vF1I7pQP9UA65ckvUODu-118" edge="1">
          <mxGeometry relative="1" as="geometry">
            <mxPoint x="1395" y="1090" as="targetPoint" />
            <Array as="points">
              <mxPoint x="1220" y="1280" />
              <mxPoint x="1220" y="1090" />
            </Array>
          </mxGeometry>
        </mxCell>
        <mxCell id="vF1I7pQP9UA65ckvUODu-126" style="edgeStyle=orthogonalEdgeStyle;rounded=0;orthogonalLoop=1;jettySize=auto;html=1;exitX=1;exitY=0.5;exitDx=0;exitDy=0;entryX=1;entryY=0.5;entryDx=0;entryDy=0;" parent="WIyWlLk6GJQsqaUBKTNV-1" source="vF1I7pQP9UA65ckvUODu-117" target="vF1I7pQP9UA65ckvUODu-118" edge="1">
          <mxGeometry relative="1" as="geometry">
            <Array as="points">
              <mxPoint x="1650" y="1280" />
              <mxPoint x="1650" y="1090" />
            </Array>
          </mxGeometry>
        </mxCell>
        <mxCell id="vF1I7pQP9UA65ckvUODu-117" value="변경 / 취소" style="rhombus;whiteSpace=wrap;html=1;" parent="WIyWlLk6GJQsqaUBKTNV-1" vertex="1">
          <mxGeometry x="1263.13" y="1250" width="113.75" height="60" as="geometry" />
        </mxCell>
        <mxCell id="vF1I7pQP9UA65ckvUODu-119" style="edgeStyle=orthogonalEdgeStyle;rounded=0;orthogonalLoop=1;jettySize=auto;html=1;exitX=0.5;exitY=1;exitDx=0;exitDy=0;entryX=0.5;entryY=0;entryDx=0;entryDy=0;" parent="WIyWlLk6GJQsqaUBKTNV-1" source="vF1I7pQP9UA65ckvUODu-118" target="vF1I7pQP9UA65ckvUODu-113" edge="1">
          <mxGeometry relative="1" as="geometry">
            <Array as="points">
              <mxPoint x="1490" y="1120" />
              <mxPoint x="1490" y="1150" />
              <mxPoint x="1320" y="1150" />
            </Array>
          </mxGeometry>
        </mxCell>
        <mxCell id="vF1I7pQP9UA65ckvUODu-129" style="edgeStyle=orthogonalEdgeStyle;rounded=0;orthogonalLoop=1;jettySize=auto;html=1;exitX=0.75;exitY=1;exitDx=0;exitDy=0;entryX=0.5;entryY=0;entryDx=0;entryDy=0;" parent="WIyWlLk6GJQsqaUBKTNV-1" source="vF1I7pQP9UA65ckvUODu-118" target="vF1I7pQP9UA65ckvUODu-122" edge="1">
          <mxGeometry relative="1" as="geometry" />
        </mxCell>
        <mxCell id="vF1I7pQP9UA65ckvUODu-118" value="수량 / 재료 선택 화면" style="shape=parallelogram;perimeter=parallelogramPerimeter;whiteSpace=wrap;html=1;fixedSize=1;" parent="WIyWlLk6GJQsqaUBKTNV-1" vertex="1">
          <mxGeometry x="1435" y="1060" width="150" height="60" as="geometry" />
        </mxCell>
        <mxCell id="vF1I7pQP9UA65ckvUODu-131" value="" style="edgeStyle=orthogonalEdgeStyle;rounded=0;orthogonalLoop=1;jettySize=auto;html=1;" parent="WIyWlLk6GJQsqaUBKTNV-1" source="vF1I7pQP9UA65ckvUODu-122" target="vF1I7pQP9UA65ckvUODu-130" edge="1">
          <mxGeometry relative="1" as="geometry" />
        </mxCell>
        <mxCell id="vF1I7pQP9UA65ckvUODu-122" value="수량 선택" style="shape=parallelogram;perimeter=parallelogramPerimeter;whiteSpace=wrap;html=1;fixedSize=1;" parent="WIyWlLk6GJQsqaUBKTNV-1" vertex="1">
          <mxGeometry x="1460" y="1320" width="120" height="60" as="geometry" />
        </mxCell>
        <mxCell id="vF1I7pQP9UA65ckvUODu-125" value="취소" style="text;html=1;strokeColor=none;fillColor=none;align=center;verticalAlign=middle;whiteSpace=wrap;rounded=0;" parent="WIyWlLk6GJQsqaUBKTNV-1" vertex="1">
          <mxGeometry x="1220" y="1249" width="60" height="30" as="geometry" />
        </mxCell>
        <mxCell id="vF1I7pQP9UA65ckvUODu-127" value="변경" style="text;html=1;strokeColor=none;fillColor=none;align=center;verticalAlign=middle;whiteSpace=wrap;rounded=0;" parent="WIyWlLk6GJQsqaUBKTNV-1" vertex="1">
          <mxGeometry x="1375" y="1250" width="60" height="30" as="geometry" />
        </mxCell>
        <mxCell id="vF1I7pQP9UA65ckvUODu-132" style="edgeStyle=orthogonalEdgeStyle;rounded=0;orthogonalLoop=1;jettySize=auto;html=1;exitX=0;exitY=0.5;exitDx=0;exitDy=0;entryX=0;entryY=0.5;entryDx=0;entryDy=0;" parent="WIyWlLk6GJQsqaUBKTNV-1" source="vF1I7pQP9UA65ckvUODu-130" target="vF1I7pQP9UA65ckvUODu-40" edge="1">
          <mxGeometry relative="1" as="geometry">
            <Array as="points">
              <mxPoint x="1200" y="1460" />
              <mxPoint x="1200" y="550" />
            </Array>
          </mxGeometry>
        </mxCell>
        <mxCell id="vF1I7pQP9UA65ckvUODu-135" value="" style="edgeStyle=orthogonalEdgeStyle;rounded=0;orthogonalLoop=1;jettySize=auto;html=1;" parent="WIyWlLk6GJQsqaUBKTNV-1" source="vF1I7pQP9UA65ckvUODu-130" target="vF1I7pQP9UA65ckvUODu-134" edge="1">
          <mxGeometry relative="1" as="geometry" />
        </mxCell>
        <mxCell id="vF1I7pQP9UA65ckvUODu-130" value="완료 / 취소" style="rhombus;whiteSpace=wrap;html=1;" parent="WIyWlLk6GJQsqaUBKTNV-1" vertex="1">
          <mxGeometry x="1455" y="1420" width="130" height="80" as="geometry" />
        </mxCell>
        <mxCell id="vF1I7pQP9UA65ckvUODu-133" value="취소" style="text;html=1;strokeColor=none;fillColor=none;align=center;verticalAlign=middle;whiteSpace=wrap;rounded=0;" parent="WIyWlLk6GJQsqaUBKTNV-1" vertex="1">
          <mxGeometry x="1390" y="1430" width="60" height="30" as="geometry" />
        </mxCell>
        <mxCell id="vF1I7pQP9UA65ckvUODu-136" style="edgeStyle=orthogonalEdgeStyle;rounded=0;orthogonalLoop=1;jettySize=auto;html=1;exitX=0.5;exitY=1;exitDx=0;exitDy=0;entryX=0;entryY=0.5;entryDx=0;entryDy=0;" parent="WIyWlLk6GJQsqaUBKTNV-1" source="vF1I7pQP9UA65ckvUODu-134" target="vF1I7pQP9UA65ckvUODu-18" edge="1">
          <mxGeometry relative="1" as="geometry">
            <Array as="points">
              <mxPoint x="1520" y="1650" />
              <mxPoint x="1150" y="1650" />
              <mxPoint x="1150" y="310" />
            </Array>
          </mxGeometry>
        </mxCell>
        <mxCell id="vF1I7pQP9UA65ckvUODu-134" value="장바구니에 추가" style="shape=parallelogram;perimeter=parallelogramPerimeter;whiteSpace=wrap;html=1;fixedSize=1;" parent="WIyWlLk6GJQsqaUBKTNV-1" vertex="1">
          <mxGeometry x="1460" y="1550" width="120" height="60" as="geometry" />
        </mxCell>
        <mxCell id="vF1I7pQP9UA65ckvUODu-137" value="완료" style="text;html=1;strokeColor=none;fillColor=none;align=center;verticalAlign=middle;whiteSpace=wrap;rounded=0;" parent="WIyWlLk6GJQsqaUBKTNV-1" vertex="1">
          <mxGeometry x="1520" y="1500" width="60" height="30" as="geometry" />
        </mxCell>
        <mxCell id="vF1I7pQP9UA65ckvUODu-138" value="선택" style="text;html=1;strokeColor=none;fillColor=none;align=center;verticalAlign=middle;whiteSpace=wrap;rounded=0;" parent="WIyWlLk6GJQsqaUBKTNV-1" vertex="1">
          <mxGeometry x="1510" y="710" width="60" height="30" as="geometry" />
        </mxCell>
        <mxCell id="vF1I7pQP9UA65ckvUODu-139" value="선택" style="text;html=1;strokeColor=none;fillColor=none;align=center;verticalAlign=middle;whiteSpace=wrap;rounded=0;" parent="WIyWlLk6GJQsqaUBKTNV-1" vertex="1">
          <mxGeometry x="1510" y="1020" width="60" height="30" as="geometry" />
        </mxCell>
        <mxCell id="vF1I7pQP9UA65ckvUODu-142" style="edgeStyle=orthogonalEdgeStyle;rounded=0;orthogonalLoop=1;jettySize=auto;html=1;exitX=0.5;exitY=1;exitDx=0;exitDy=0;entryX=0.5;entryY=0;entryDx=0;entryDy=0;" parent="WIyWlLk6GJQsqaUBKTNV-1" source="vF1I7pQP9UA65ckvUODu-140" target="vF1I7pQP9UA65ckvUODu-109" edge="1">
          <mxGeometry relative="1" as="geometry" />
        </mxCell>
        <mxCell id="vF1I7pQP9UA65ckvUODu-145" style="edgeStyle=orthogonalEdgeStyle;rounded=0;orthogonalLoop=1;jettySize=auto;html=1;exitX=1;exitY=0.5;exitDx=0;exitDy=0;entryX=1;entryY=0.5;entryDx=0;entryDy=0;" parent="WIyWlLk6GJQsqaUBKTNV-1" source="vF1I7pQP9UA65ckvUODu-140" target="vF1I7pQP9UA65ckvUODu-40" edge="1">
          <mxGeometry relative="1" as="geometry">
            <Array as="points">
              <mxPoint x="1660" y="880" />
              <mxPoint x="1660" y="550" />
            </Array>
          </mxGeometry>
        </mxCell>
        <mxCell id="vF1I7pQP9UA65ckvUODu-140" value="메뉴 선택 / 이전" style="rhombus;whiteSpace=wrap;html=1;" parent="WIyWlLk6GJQsqaUBKTNV-1" vertex="1">
          <mxGeometry x="1440" y="840" width="140" height="80" as="geometry" />
        </mxCell>
        <mxCell id="vF1I7pQP9UA65ckvUODu-146" value="이전" style="text;html=1;strokeColor=none;fillColor=none;align=center;verticalAlign=middle;whiteSpace=wrap;rounded=0;" parent="WIyWlLk6GJQsqaUBKTNV-1" vertex="1">
          <mxGeometry x="1570" y="850" width="60" height="30" as="geometry" />
        </mxCell>
        <mxCell id="vF1I7pQP9UA65ckvUODu-147" value="선택" style="text;html=1;strokeColor=none;fillColor=none;align=center;verticalAlign=middle;whiteSpace=wrap;rounded=0;" parent="WIyWlLk6GJQsqaUBKTNV-1" vertex="1">
          <mxGeometry x="1500" y="910" width="60" height="30" as="geometry" />
        </mxCell>
        <mxCell id="vF1I7pQP9UA65ckvUODu-150" style="edgeStyle=orthogonalEdgeStyle;rounded=0;orthogonalLoop=1;jettySize=auto;html=1;exitX=1;exitY=0.5;exitDx=0;exitDy=0;entryX=1;entryY=0.5;entryDx=0;entryDy=0;" parent="WIyWlLk6GJQsqaUBKTNV-1" source="vF1I7pQP9UA65ckvUODu-148" target="vF1I7pQP9UA65ckvUODu-18" edge="1">
          <mxGeometry relative="1" as="geometry">
            <Array as="points">
              <mxPoint x="2250" y="660" />
              <mxPoint x="2250" y="310" />
            </Array>
          </mxGeometry>
        </mxCell>
        <mxCell id="vF1I7pQP9UA65ckvUODu-152" value="" style="edgeStyle=orthogonalEdgeStyle;rounded=0;orthogonalLoop=1;jettySize=auto;html=1;" parent="WIyWlLk6GJQsqaUBKTNV-1" source="vF1I7pQP9UA65ckvUODu-148" target="vF1I7pQP9UA65ckvUODu-151" edge="1">
          <mxGeometry relative="1" as="geometry" />
        </mxCell>
        <mxCell id="vF1I7pQP9UA65ckvUODu-148" value="음료 선택 / 이전" style="rhombus;whiteSpace=wrap;html=1;" parent="WIyWlLk6GJQsqaUBKTNV-1" vertex="1">
          <mxGeometry x="2019.97" y="620" width="180" height="80" as="geometry" />
        </mxCell>
        <mxCell id="vF1I7pQP9UA65ckvUODu-153" style="edgeStyle=orthogonalEdgeStyle;rounded=0;orthogonalLoop=1;jettySize=auto;html=1;exitX=0;exitY=0.5;exitDx=0;exitDy=0;entryX=0;entryY=0.5;entryDx=0;entryDy=0;" parent="WIyWlLk6GJQsqaUBKTNV-1" source="vF1I7pQP9UA65ckvUODu-151" target="vF1I7pQP9UA65ckvUODu-41" edge="1">
          <mxGeometry relative="1" as="geometry">
            <Array as="points">
              <mxPoint x="1979.97" y="800" />
              <mxPoint x="1979.97" y="550" />
            </Array>
          </mxGeometry>
        </mxCell>
        <mxCell id="vF1I7pQP9UA65ckvUODu-161" value="" style="edgeStyle=orthogonalEdgeStyle;rounded=0;orthogonalLoop=1;jettySize=auto;html=1;" parent="WIyWlLk6GJQsqaUBKTNV-1" source="vF1I7pQP9UA65ckvUODu-151" target="vF1I7pQP9UA65ckvUODu-159" edge="1">
          <mxGeometry relative="1" as="geometry" />
        </mxCell>
        <mxCell id="vF1I7pQP9UA65ckvUODu-151" value="사이즈(구성) 선택 / 취소" style="rhombus;whiteSpace=wrap;html=1;" parent="WIyWlLk6GJQsqaUBKTNV-1" vertex="1">
          <mxGeometry x="2019.97" y="750" width="180" height="100" as="geometry" />
        </mxCell>
        <mxCell id="vF1I7pQP9UA65ckvUODu-154" value="이전" style="text;html=1;strokeColor=none;fillColor=none;align=center;verticalAlign=middle;whiteSpace=wrap;rounded=0;" parent="WIyWlLk6GJQsqaUBKTNV-1" vertex="1">
          <mxGeometry x="2189.97" y="630" width="60" height="30" as="geometry" />
        </mxCell>
        <mxCell id="vF1I7pQP9UA65ckvUODu-156" value="선택" style="text;html=1;strokeColor=none;fillColor=none;align=center;verticalAlign=middle;whiteSpace=wrap;rounded=0;" parent="WIyWlLk6GJQsqaUBKTNV-1" vertex="1">
          <mxGeometry x="2109.97" y="700" width="60" height="30" as="geometry" />
        </mxCell>
        <mxCell id="vF1I7pQP9UA65ckvUODu-157" value="취소" style="text;html=1;strokeColor=none;fillColor=none;align=center;verticalAlign=middle;whiteSpace=wrap;rounded=0;" parent="WIyWlLk6GJQsqaUBKTNV-1" vertex="1">
          <mxGeometry x="1979.97" y="765" width="60" height="30" as="geometry" />
        </mxCell>
        <mxCell id="vF1I7pQP9UA65ckvUODu-163" value="" style="edgeStyle=orthogonalEdgeStyle;rounded=0;orthogonalLoop=1;jettySize=auto;html=1;exitX=0.25;exitY=1;exitDx=0;exitDy=0;" parent="WIyWlLk6GJQsqaUBKTNV-1" source="vF1I7pQP9UA65ckvUODu-159" target="vF1I7pQP9UA65ckvUODu-162" edge="1">
          <mxGeometry relative="1" as="geometry" />
        </mxCell>
        <mxCell id="vF1I7pQP9UA65ckvUODu-199" style="edgeStyle=orthogonalEdgeStyle;rounded=0;orthogonalLoop=1;jettySize=auto;html=1;exitX=0.75;exitY=1;exitDx=0;exitDy=0;entryX=0.5;entryY=0;entryDx=0;entryDy=0;" parent="WIyWlLk6GJQsqaUBKTNV-1" source="vF1I7pQP9UA65ckvUODu-159" target="vF1I7pQP9UA65ckvUODu-200" edge="1">
          <mxGeometry relative="1" as="geometry">
            <mxPoint x="2099.97" y="1240" as="targetPoint" />
            <Array as="points">
              <mxPoint x="2151.97" y="1190" />
              <mxPoint x="2099.97" y="1190" />
            </Array>
          </mxGeometry>
        </mxCell>
        <mxCell id="vF1I7pQP9UA65ckvUODu-159" value="수량 / 재료 선택 화면" style="shape=parallelogram;perimeter=parallelogramPerimeter;whiteSpace=wrap;html=1;fixedSize=1;" parent="WIyWlLk6GJQsqaUBKTNV-1" vertex="1">
          <mxGeometry x="2024.97" y="890" width="170" height="60" as="geometry" />
        </mxCell>
        <mxCell id="vF1I7pQP9UA65ckvUODu-160" value="카테고리 선택" style="text;html=1;strokeColor=none;fillColor=none;align=center;verticalAlign=middle;whiteSpace=wrap;rounded=0;" parent="WIyWlLk6GJQsqaUBKTNV-1" vertex="1">
          <mxGeometry x="1641.94" y="450" width="84.03" height="30" as="geometry" />
        </mxCell>
        <mxCell id="vF1I7pQP9UA65ckvUODu-165" value="" style="edgeStyle=orthogonalEdgeStyle;rounded=0;orthogonalLoop=1;jettySize=auto;html=1;" parent="WIyWlLk6GJQsqaUBKTNV-1" source="vF1I7pQP9UA65ckvUODu-162" target="vF1I7pQP9UA65ckvUODu-164" edge="1">
          <mxGeometry relative="1" as="geometry" />
        </mxCell>
        <mxCell id="vF1I7pQP9UA65ckvUODu-162" value="재료 추가 변경" style="shape=parallelogram;perimeter=parallelogramPerimeter;whiteSpace=wrap;html=1;fixedSize=1;" parent="WIyWlLk6GJQsqaUBKTNV-1" vertex="1">
          <mxGeometry x="1915.91" y="1030" width="134.06" height="60" as="geometry" />
        </mxCell>
        <mxCell id="vF1I7pQP9UA65ckvUODu-195" style="edgeStyle=orthogonalEdgeStyle;rounded=0;orthogonalLoop=1;jettySize=auto;html=1;exitX=1;exitY=0.5;exitDx=0;exitDy=0;entryX=1;entryY=0.5;entryDx=0;entryDy=0;" parent="WIyWlLk6GJQsqaUBKTNV-1" source="vF1I7pQP9UA65ckvUODu-164" target="vF1I7pQP9UA65ckvUODu-159" edge="1">
          <mxGeometry relative="1" as="geometry">
            <Array as="points">
              <mxPoint x="2249.97" y="1165" />
              <mxPoint x="2249.97" y="920" />
            </Array>
          </mxGeometry>
        </mxCell>
        <mxCell id="vF1I7pQP9UA65ckvUODu-196" style="edgeStyle=orthogonalEdgeStyle;rounded=0;orthogonalLoop=1;jettySize=auto;html=1;exitX=0;exitY=0.5;exitDx=0;exitDy=0;entryX=0;entryY=0.5;entryDx=0;entryDy=0;" parent="WIyWlLk6GJQsqaUBKTNV-1" source="vF1I7pQP9UA65ckvUODu-164" target="vF1I7pQP9UA65ckvUODu-159" edge="1">
          <mxGeometry relative="1" as="geometry">
            <Array as="points">
              <mxPoint x="1859.97" y="1165" />
              <mxPoint x="1859.97" y="920" />
            </Array>
          </mxGeometry>
        </mxCell>
        <mxCell id="vF1I7pQP9UA65ckvUODu-164" value="변경 / 취소" style="rhombus;whiteSpace=wrap;html=1;" parent="WIyWlLk6GJQsqaUBKTNV-1" vertex="1">
          <mxGeometry x="1914.43" y="1125" width="137.03" height="80" as="geometry" />
        </mxCell>
        <mxCell id="vF1I7pQP9UA65ckvUODu-182" style="edgeStyle=orthogonalEdgeStyle;rounded=0;orthogonalLoop=1;jettySize=auto;html=1;exitX=0;exitY=0.5;exitDx=0;exitDy=0;entryX=0;entryY=0.5;entryDx=0;entryDy=0;" parent="WIyWlLk6GJQsqaUBKTNV-1" source="vF1I7pQP9UA65ckvUODu-169" target="vF1I7pQP9UA65ckvUODu-178" edge="1">
          <mxGeometry relative="1" as="geometry">
            <Array as="points">
              <mxPoint x="500" y="1200" />
              <mxPoint x="500" y="930" />
            </Array>
          </mxGeometry>
        </mxCell>
        <mxCell id="vF1I7pQP9UA65ckvUODu-194" style="edgeStyle=orthogonalEdgeStyle;rounded=0;orthogonalLoop=1;jettySize=auto;html=1;exitX=0.5;exitY=1;exitDx=0;exitDy=0;entryX=1;entryY=0.5;entryDx=0;entryDy=0;" parent="WIyWlLk6GJQsqaUBKTNV-1" source="vF1I7pQP9UA65ckvUODu-169" target="vF1I7pQP9UA65ckvUODu-178" edge="1">
          <mxGeometry relative="1" as="geometry">
            <Array as="points">
              <mxPoint x="605" y="1260" />
              <mxPoint x="790" y="1260" />
              <mxPoint x="790" y="930" />
            </Array>
          </mxGeometry>
        </mxCell>
        <mxCell id="vF1I7pQP9UA65ckvUODu-169" value="변경 / 취소" style="rhombus;whiteSpace=wrap;html=1;" parent="WIyWlLk6GJQsqaUBKTNV-1" vertex="1">
          <mxGeometry x="549.5" y="1160" width="111" height="80" as="geometry" />
        </mxCell>
        <mxCell id="vF1I7pQP9UA65ckvUODu-173" style="edgeStyle=orthogonalEdgeStyle;rounded=0;orthogonalLoop=1;jettySize=auto;html=1;exitX=0.5;exitY=1;exitDx=0;exitDy=0;entryX=0.75;entryY=0;entryDx=0;entryDy=0;" parent="WIyWlLk6GJQsqaUBKTNV-1" source="vF1I7pQP9UA65ckvUODu-171" target="vF1I7pQP9UA65ckvUODu-57" edge="1">
          <mxGeometry relative="1" as="geometry" />
        </mxCell>
        <mxCell id="vF1I7pQP9UA65ckvUODu-188" style="edgeStyle=orthogonalEdgeStyle;rounded=0;orthogonalLoop=1;jettySize=auto;html=1;exitX=1;exitY=0.5;exitDx=0;exitDy=0;entryX=1;entryY=0.5;entryDx=0;entryDy=0;" parent="WIyWlLk6GJQsqaUBKTNV-1" source="vF1I7pQP9UA65ckvUODu-171" target="vF1I7pQP9UA65ckvUODu-175" edge="1">
          <mxGeometry relative="1" as="geometry">
            <Array as="points">
              <mxPoint x="1110" y="1129" />
              <mxPoint x="1110" y="870" />
            </Array>
          </mxGeometry>
        </mxCell>
        <mxCell id="vF1I7pQP9UA65ckvUODu-171" value="변경 / 취소" style="rhombus;whiteSpace=wrap;html=1;" parent="WIyWlLk6GJQsqaUBKTNV-1" vertex="1">
          <mxGeometry x="950.5" y="1089" width="111" height="80" as="geometry" />
        </mxCell>
        <mxCell id="vF1I7pQP9UA65ckvUODu-179" value="" style="edgeStyle=orthogonalEdgeStyle;rounded=0;orthogonalLoop=1;jettySize=auto;html=1;" parent="WIyWlLk6GJQsqaUBKTNV-1" source="vF1I7pQP9UA65ckvUODu-175" target="vF1I7pQP9UA65ckvUODu-68" edge="1">
          <mxGeometry relative="1" as="geometry" />
        </mxCell>
        <mxCell id="vF1I7pQP9UA65ckvUODu-185" style="edgeStyle=orthogonalEdgeStyle;rounded=0;orthogonalLoop=1;jettySize=auto;html=1;exitX=0.25;exitY=1;exitDx=0;exitDy=0;entryX=0.25;entryY=0;entryDx=0;entryDy=0;" parent="WIyWlLk6GJQsqaUBKTNV-1" source="vF1I7pQP9UA65ckvUODu-175" target="vF1I7pQP9UA65ckvUODu-57" edge="1">
          <mxGeometry relative="1" as="geometry">
            <Array as="points">
              <mxPoint x="890" y="900" />
              <mxPoint x="890" y="1220" />
            </Array>
          </mxGeometry>
        </mxCell>
        <mxCell id="vF1I7pQP9UA65ckvUODu-175" value="세부 선택 화면" style="shape=parallelogram;perimeter=parallelogramPerimeter;whiteSpace=wrap;html=1;fixedSize=1;" parent="WIyWlLk6GJQsqaUBKTNV-1" vertex="1">
          <mxGeometry x="861" y="840" width="120" height="60" as="geometry" />
        </mxCell>
        <mxCell id="vF1I7pQP9UA65ckvUODu-177" value="" style="edgeStyle=orthogonalEdgeStyle;rounded=0;orthogonalLoop=1;jettySize=auto;html=1;exitX=1;exitY=0.5;exitDx=0;exitDy=0;entryX=0.5;entryY=0;entryDx=0;entryDy=0;" parent="WIyWlLk6GJQsqaUBKTNV-1" source="vF1I7pQP9UA65ckvUODu-47" target="vF1I7pQP9UA65ckvUODu-175" edge="1">
          <mxGeometry relative="1" as="geometry">
            <mxPoint x="890" y="780" as="sourcePoint" />
            <mxPoint x="921" y="820" as="targetPoint" />
          </mxGeometry>
        </mxCell>
        <mxCell id="vF1I7pQP9UA65ckvUODu-73" value="세트" style="text;html=1;strokeColor=none;fillColor=none;align=center;verticalAlign=middle;whiteSpace=wrap;rounded=0;" parent="WIyWlLk6GJQsqaUBKTNV-1" vertex="1">
          <mxGeometry x="881" y="760" width="60" height="30" as="geometry" />
        </mxCell>
        <mxCell id="vF1I7pQP9UA65ckvUODu-180" value="" style="edgeStyle=orthogonalEdgeStyle;rounded=0;orthogonalLoop=1;jettySize=auto;html=1;exitX=0.25;exitY=1;exitDx=0;exitDy=0;" parent="WIyWlLk6GJQsqaUBKTNV-1" source="vF1I7pQP9UA65ckvUODu-178" target="vF1I7pQP9UA65ckvUODu-55" edge="1">
          <mxGeometry relative="1" as="geometry">
            <Array as="points">
              <mxPoint x="660" y="990" />
              <mxPoint x="605" y="990" />
            </Array>
          </mxGeometry>
        </mxCell>
        <mxCell id="vF1I7pQP9UA65ckvUODu-184" style="edgeStyle=orthogonalEdgeStyle;rounded=0;orthogonalLoop=1;jettySize=auto;html=1;exitX=0.75;exitY=1;exitDx=0;exitDy=0;entryX=0.355;entryY=0.168;entryDx=0;entryDy=0;entryPerimeter=0;" parent="WIyWlLk6GJQsqaUBKTNV-1" source="vF1I7pQP9UA65ckvUODu-178" target="vF1I7pQP9UA65ckvUODu-80" edge="1">
          <mxGeometry relative="1" as="geometry" />
        </mxCell>
        <mxCell id="vF1I7pQP9UA65ckvUODu-178" value="세부 선택 화면" style="shape=parallelogram;perimeter=parallelogramPerimeter;whiteSpace=wrap;html=1;fixedSize=1;" parent="WIyWlLk6GJQsqaUBKTNV-1" vertex="1">
          <mxGeometry x="629.97" y="900" width="120" height="60" as="geometry" />
        </mxCell>
        <mxCell id="vF1I7pQP9UA65ckvUODu-183" value="취소" style="text;html=1;strokeColor=none;fillColor=none;align=center;verticalAlign=middle;whiteSpace=wrap;rounded=0;" parent="WIyWlLk6GJQsqaUBKTNV-1" vertex="1">
          <mxGeometry x="510" y="1169" width="60" height="30" as="geometry" />
        </mxCell>
        <mxCell id="vF1I7pQP9UA65ckvUODu-189" value="취소" style="text;html=1;strokeColor=none;fillColor=none;align=center;verticalAlign=middle;whiteSpace=wrap;rounded=0;" parent="WIyWlLk6GJQsqaUBKTNV-1" vertex="1">
          <mxGeometry x="1040" y="1100" width="60" height="30" as="geometry" />
        </mxCell>
        <mxCell id="vF1I7pQP9UA65ckvUODu-190" value="변경" style="text;html=1;strokeColor=none;fillColor=none;align=center;verticalAlign=middle;whiteSpace=wrap;rounded=0;" parent="WIyWlLk6GJQsqaUBKTNV-1" vertex="1">
          <mxGeometry x="950.5" y="1169" width="60" height="30" as="geometry" />
        </mxCell>
        <mxCell id="vF1I7pQP9UA65ckvUODu-191" value="완료" style="text;html=1;strokeColor=none;fillColor=none;align=center;verticalAlign=middle;whiteSpace=wrap;rounded=0;" parent="WIyWlLk6GJQsqaUBKTNV-1" vertex="1">
          <mxGeometry x="740" y="1540" width="60" height="30" as="geometry" />
        </mxCell>
        <mxCell id="vF1I7pQP9UA65ckvUODu-193" value="변경" style="text;html=1;strokeColor=none;fillColor=none;align=center;verticalAlign=middle;whiteSpace=wrap;rounded=0;" parent="WIyWlLk6GJQsqaUBKTNV-1" vertex="1">
          <mxGeometry x="629.97" y="1230" width="60" height="30" as="geometry" />
        </mxCell>
        <mxCell id="vF1I7pQP9UA65ckvUODu-197" value="취소" style="text;html=1;strokeColor=none;fillColor=none;align=center;verticalAlign=middle;whiteSpace=wrap;rounded=0;" parent="WIyWlLk6GJQsqaUBKTNV-1" vertex="1">
          <mxGeometry x="1855.94" y="1139" width="60" height="30" as="geometry" />
        </mxCell>
        <mxCell id="vF1I7pQP9UA65ckvUODu-198" value="변경" style="text;html=1;strokeColor=none;fillColor=none;align=center;verticalAlign=middle;whiteSpace=wrap;rounded=0;" parent="WIyWlLk6GJQsqaUBKTNV-1" vertex="1">
          <mxGeometry x="2049.97" y="1139" width="60" height="30" as="geometry" />
        </mxCell>
        <mxCell id="vF1I7pQP9UA65ckvUODu-204" value="" style="edgeStyle=orthogonalEdgeStyle;rounded=0;orthogonalLoop=1;jettySize=auto;html=1;" parent="WIyWlLk6GJQsqaUBKTNV-1" source="vF1I7pQP9UA65ckvUODu-200" target="vF1I7pQP9UA65ckvUODu-203" edge="1">
          <mxGeometry relative="1" as="geometry" />
        </mxCell>
        <mxCell id="vF1I7pQP9UA65ckvUODu-200" value="수량 선택" style="shape=parallelogram;perimeter=parallelogramPerimeter;whiteSpace=wrap;html=1;fixedSize=1;" parent="WIyWlLk6GJQsqaUBKTNV-1" vertex="1">
          <mxGeometry x="2039.97" y="1230" width="120" height="40" as="geometry" />
        </mxCell>
        <mxCell id="vF1I7pQP9UA65ckvUODu-207" value="" style="edgeStyle=orthogonalEdgeStyle;rounded=0;orthogonalLoop=1;jettySize=auto;html=1;" parent="WIyWlLk6GJQsqaUBKTNV-1" source="vF1I7pQP9UA65ckvUODu-203" target="vF1I7pQP9UA65ckvUODu-206" edge="1">
          <mxGeometry relative="1" as="geometry" />
        </mxCell>
        <mxCell id="vF1I7pQP9UA65ckvUODu-208" style="edgeStyle=orthogonalEdgeStyle;rounded=0;orthogonalLoop=1;jettySize=auto;html=1;exitX=1;exitY=0.5;exitDx=0;exitDy=0;entryX=1;entryY=0.5;entryDx=0;entryDy=0;" parent="WIyWlLk6GJQsqaUBKTNV-1" source="vF1I7pQP9UA65ckvUODu-203" target="vF1I7pQP9UA65ckvUODu-41" edge="1">
          <mxGeometry relative="1" as="geometry">
            <Array as="points">
              <mxPoint x="2290" y="1350" />
              <mxPoint x="2290" y="550" />
            </Array>
          </mxGeometry>
        </mxCell>
        <mxCell id="vF1I7pQP9UA65ckvUODu-203" value="완료 / 취소" style="rhombus;whiteSpace=wrap;html=1;" parent="WIyWlLk6GJQsqaUBKTNV-1" vertex="1">
          <mxGeometry x="2034.97" y="1310" width="130" height="80" as="geometry" />
        </mxCell>
        <mxCell id="vF1I7pQP9UA65ckvUODu-210" style="edgeStyle=orthogonalEdgeStyle;rounded=0;orthogonalLoop=1;jettySize=auto;html=1;exitX=0.5;exitY=1;exitDx=0;exitDy=0;entryX=1;entryY=0.5;entryDx=0;entryDy=0;" parent="WIyWlLk6GJQsqaUBKTNV-1" source="vF1I7pQP9UA65ckvUODu-206" target="vF1I7pQP9UA65ckvUODu-18" edge="1">
          <mxGeometry relative="1" as="geometry">
            <Array as="points">
              <mxPoint x="2100" y="1530" />
              <mxPoint x="2360" y="1530" />
              <mxPoint x="2360" y="310" />
            </Array>
          </mxGeometry>
        </mxCell>
        <mxCell id="vF1I7pQP9UA65ckvUODu-206" value="장바구니에 추가" style="shape=parallelogram;perimeter=parallelogramPerimeter;whiteSpace=wrap;html=1;fixedSize=1;" parent="WIyWlLk6GJQsqaUBKTNV-1" vertex="1">
          <mxGeometry x="2039.97" y="1430" width="120" height="60" as="geometry" />
        </mxCell>
        <mxCell id="vF1I7pQP9UA65ckvUODu-209" value="취소" style="text;html=1;strokeColor=none;fillColor=none;align=center;verticalAlign=middle;whiteSpace=wrap;rounded=0;" parent="WIyWlLk6GJQsqaUBKTNV-1" vertex="1">
          <mxGeometry x="2159.97" y="1320" width="60" height="30" as="geometry" />
        </mxCell>
        <mxCell id="vF1I7pQP9UA65ckvUODu-211" value="선택" style="text;html=1;strokeColor=none;fillColor=none;align=center;verticalAlign=middle;whiteSpace=wrap;rounded=0;" parent="WIyWlLk6GJQsqaUBKTNV-1" vertex="1">
          <mxGeometry x="2109.97" y="850" width="60" height="30" as="geometry" />
        </mxCell>
        <mxCell id="vF1I7pQP9UA65ckvUODu-212" value="완료" style="text;html=1;strokeColor=none;fillColor=none;align=center;verticalAlign=middle;whiteSpace=wrap;rounded=0;" parent="WIyWlLk6GJQsqaUBKTNV-1" vertex="1">
          <mxGeometry x="2099.97" y="1390" width="60" height="30" as="geometry" />
        </mxCell>
        <mxCell id="vF1I7pQP9UA65ckvUODu-213" value="&lt;b&gt;&lt;font style=&quot;font-size: 16px;&quot;&gt;각 메뉴들과 동일&lt;/font&gt;&lt;/b&gt;" style="rounded=0;whiteSpace=wrap;html=1;" parent="WIyWlLk6GJQsqaUBKTNV-1" vertex="1">
          <mxGeometry x="2450" y="630" width="144.97" height="80" as="geometry" />
        </mxCell>
        <mxCell id="vF1I7pQP9UA65ckvUODu-218" style="edgeStyle=orthogonalEdgeStyle;rounded=0;orthogonalLoop=1;jettySize=auto;html=1;exitX=1;exitY=0.5;exitDx=0;exitDy=0;entryX=1;entryY=0.5;entryDx=0;entryDy=0;" parent="WIyWlLk6GJQsqaUBKTNV-1" source="vF1I7pQP9UA65ckvUODu-217" target="WIyWlLk6GJQsqaUBKTNV-3" edge="1">
          <mxGeometry relative="1" as="geometry">
            <Array as="points">
              <mxPoint x="1910" y="1680" />
              <mxPoint x="2670" y="1680" />
              <mxPoint x="2670" y="90" />
            </Array>
          </mxGeometry>
        </mxCell>
        <mxCell id="vF1I7pQP9UA65ckvUODu-220" value="" style="edgeStyle=orthogonalEdgeStyle;rounded=0;orthogonalLoop=1;jettySize=auto;html=1;" parent="WIyWlLk6GJQsqaUBKTNV-1" source="vF1I7pQP9UA65ckvUODu-217" target="vF1I7pQP9UA65ckvUODu-219" edge="1">
          <mxGeometry relative="1" as="geometry" />
        </mxCell>
        <mxCell id="vF1I7pQP9UA65ckvUODu-217" value="주문 완료 / 주문 취소" style="rhombus;whiteSpace=wrap;html=1;" parent="WIyWlLk6GJQsqaUBKTNV-1" vertex="1">
          <mxGeometry x="1715.97" y="1620" width="194.06" height="110" as="geometry" />
        </mxCell>
        <mxCell id="vF1I7pQP9UA65ckvUODu-221" style="edgeStyle=orthogonalEdgeStyle;rounded=0;orthogonalLoop=1;jettySize=auto;html=1;exitX=0.25;exitY=1;exitDx=0;exitDy=0;entryX=0.5;entryY=0;entryDx=0;entryDy=0;" parent="WIyWlLk6GJQsqaUBKTNV-1" source="vF1I7pQP9UA65ckvUODu-219" target="vF1I7pQP9UA65ckvUODu-223" edge="1">
          <mxGeometry relative="1" as="geometry">
            <mxPoint x="1696" y="1910" as="targetPoint" />
          </mxGeometry>
        </mxCell>
        <mxCell id="vF1I7pQP9UA65ckvUODu-233" value="" style="edgeStyle=orthogonalEdgeStyle;rounded=0;orthogonalLoop=1;jettySize=auto;html=1;exitX=0.75;exitY=1;exitDx=0;exitDy=0;entryX=0.5;entryY=0;entryDx=0;entryDy=0;" parent="WIyWlLk6GJQsqaUBKTNV-1" source="vF1I7pQP9UA65ckvUODu-219" target="vF1I7pQP9UA65ckvUODu-235" edge="1">
          <mxGeometry relative="1" as="geometry">
            <mxPoint x="1843" y="2060" as="targetPoint" />
            <Array as="points" />
          </mxGeometry>
        </mxCell>
        <mxCell id="vF1I7pQP9UA65ckvUODu-219" value="주문 확인" style="shape=parallelogram;perimeter=parallelogramPerimeter;whiteSpace=wrap;html=1;fixedSize=1;" parent="WIyWlLk6GJQsqaUBKTNV-1" vertex="1">
          <mxGeometry x="1753" y="1785" width="120" height="60" as="geometry" />
        </mxCell>
        <mxCell id="vF1I7pQP9UA65ckvUODu-225" value="" style="edgeStyle=orthogonalEdgeStyle;rounded=0;orthogonalLoop=1;jettySize=auto;html=1;exitX=0;exitY=0.5;exitDx=0;exitDy=0;" parent="WIyWlLk6GJQsqaUBKTNV-1" source="vF1I7pQP9UA65ckvUODu-223" target="vF1I7pQP9UA65ckvUODu-224" edge="1">
          <mxGeometry relative="1" as="geometry" />
        </mxCell>
        <mxCell id="vF1I7pQP9UA65ckvUODu-227" value="" style="edgeStyle=orthogonalEdgeStyle;rounded=0;orthogonalLoop=1;jettySize=auto;html=1;exitX=1;exitY=0.5;exitDx=0;exitDy=0;" parent="WIyWlLk6GJQsqaUBKTNV-1" source="vF1I7pQP9UA65ckvUODu-223" target="vF1I7pQP9UA65ckvUODu-226" edge="1">
          <mxGeometry relative="1" as="geometry" />
        </mxCell>
        <mxCell id="vF1I7pQP9UA65ckvUODu-223" value="주문 삭제 / 변경" style="rhombus;whiteSpace=wrap;html=1;" parent="WIyWlLk6GJQsqaUBKTNV-1" vertex="1">
          <mxGeometry x="1550" y="1920" width="120" height="80" as="geometry" />
        </mxCell>
        <mxCell id="vF1I7pQP9UA65ckvUODu-229" style="edgeStyle=orthogonalEdgeStyle;rounded=0;orthogonalLoop=1;jettySize=auto;html=1;exitX=0;exitY=0.5;exitDx=0;exitDy=0;entryX=0;entryY=0.5;entryDx=0;entryDy=0;" parent="WIyWlLk6GJQsqaUBKTNV-1" source="vF1I7pQP9UA65ckvUODu-224" target="vF1I7pQP9UA65ckvUODu-219" edge="1">
          <mxGeometry relative="1" as="geometry">
            <Array as="points">
              <mxPoint x="1430" y="2030" />
              <mxPoint x="1430" y="1815" />
            </Array>
          </mxGeometry>
        </mxCell>
        <mxCell id="vF1I7pQP9UA65ckvUODu-224" value="해당 주문 삭제" style="shape=parallelogram;perimeter=parallelogramPerimeter;whiteSpace=wrap;html=1;fixedSize=1;" parent="WIyWlLk6GJQsqaUBKTNV-1" vertex="1">
          <mxGeometry x="1450" y="2000" width="120" height="60" as="geometry" />
        </mxCell>
        <mxCell id="vF1I7pQP9UA65ckvUODu-228" style="edgeStyle=orthogonalEdgeStyle;rounded=0;orthogonalLoop=1;jettySize=auto;html=1;exitX=1;exitY=0.5;exitDx=0;exitDy=0;entryX=1;entryY=0.5;entryDx=0;entryDy=0;" parent="WIyWlLk6GJQsqaUBKTNV-1" source="vF1I7pQP9UA65ckvUODu-226" target="vF1I7pQP9UA65ckvUODu-219" edge="1">
          <mxGeometry relative="1" as="geometry">
            <Array as="points">
              <mxPoint x="2000" y="2030" />
              <mxPoint x="2000" y="1815" />
            </Array>
          </mxGeometry>
        </mxCell>
        <mxCell id="vF1I7pQP9UA65ckvUODu-226" value="수량 변경" style="shape=parallelogram;perimeter=parallelogramPerimeter;whiteSpace=wrap;html=1;fixedSize=1;" parent="WIyWlLk6GJQsqaUBKTNV-1" vertex="1">
          <mxGeometry x="1641.94" y="2000" width="120" height="60" as="geometry" />
        </mxCell>
        <mxCell id="vF1I7pQP9UA65ckvUODu-236" style="edgeStyle=orthogonalEdgeStyle;rounded=0;orthogonalLoop=1;jettySize=auto;html=1;exitX=1;exitY=0.5;exitDx=0;exitDy=0;entryX=1;entryY=0.5;entryDx=0;entryDy=0;" parent="WIyWlLk6GJQsqaUBKTNV-1" source="vF1I7pQP9UA65ckvUODu-235" target="vF1I7pQP9UA65ckvUODu-18" edge="1">
          <mxGeometry relative="1" as="geometry">
            <mxPoint x="2170" y="2200" as="targetPoint" />
            <Array as="points">
              <mxPoint x="2760" y="2100" />
              <mxPoint x="2760" y="310" />
            </Array>
          </mxGeometry>
        </mxCell>
        <mxCell id="vF1I7pQP9UA65ckvUODu-238" value="" style="edgeStyle=orthogonalEdgeStyle;rounded=0;orthogonalLoop=1;jettySize=auto;html=1;" parent="WIyWlLk6GJQsqaUBKTNV-1" source="vF1I7pQP9UA65ckvUODu-235" target="vF1I7pQP9UA65ckvUODu-237" edge="1">
          <mxGeometry relative="1" as="geometry" />
        </mxCell>
        <mxCell id="vF1I7pQP9UA65ckvUODu-235" value="결제하기 / 이전" style="rhombus;whiteSpace=wrap;html=1;" parent="WIyWlLk6GJQsqaUBKTNV-1" vertex="1">
          <mxGeometry x="1790" y="2060" width="105.94" height="80" as="geometry" />
        </mxCell>
        <mxCell id="vF1I7pQP9UA65ckvUODu-247" style="edgeStyle=orthogonalEdgeStyle;rounded=0;orthogonalLoop=1;jettySize=auto;html=1;entryX=0;entryY=0;entryDx=0;entryDy=0;exitX=0;exitY=0.5;exitDx=0;exitDy=0;" parent="WIyWlLk6GJQsqaUBKTNV-1" source="vF1I7pQP9UA65ckvUODu-237" target="vF1I7pQP9UA65ckvUODu-246" edge="1">
          <mxGeometry relative="1" as="geometry" />
        </mxCell>
        <mxCell id="vF1I7pQP9UA65ckvUODu-248" style="edgeStyle=orthogonalEdgeStyle;rounded=0;orthogonalLoop=1;jettySize=auto;html=1;exitX=1;exitY=0.5;exitDx=0;exitDy=0;entryX=1;entryY=0;entryDx=0;entryDy=0;" parent="WIyWlLk6GJQsqaUBKTNV-1" source="vF1I7pQP9UA65ckvUODu-237" target="vF1I7pQP9UA65ckvUODu-246" edge="1">
          <mxGeometry relative="1" as="geometry" />
        </mxCell>
        <mxCell id="vF1I7pQP9UA65ckvUODu-237" value="테이블 서비스&lt;br&gt;/ 셀프 서비스" style="rhombus;whiteSpace=wrap;html=1;" parent="WIyWlLk6GJQsqaUBKTNV-1" vertex="1">
          <mxGeometry x="1770.39" y="2190" width="145.55" height="80" as="geometry" />
        </mxCell>
        <mxCell id="vF1I7pQP9UA65ckvUODu-239" value="삭제" style="text;html=1;strokeColor=none;fillColor=none;align=center;verticalAlign=middle;whiteSpace=wrap;rounded=0;" parent="WIyWlLk6GJQsqaUBKTNV-1" vertex="1">
          <mxGeometry x="1500" y="1930" width="60" height="30" as="geometry" />
        </mxCell>
        <mxCell id="vF1I7pQP9UA65ckvUODu-240" value="변경" style="text;html=1;strokeColor=none;fillColor=none;align=center;verticalAlign=middle;whiteSpace=wrap;rounded=0;" parent="WIyWlLk6GJQsqaUBKTNV-1" vertex="1">
          <mxGeometry x="1660" y="1930" width="60" height="30" as="geometry" />
        </mxCell>
        <mxCell id="vF1I7pQP9UA65ckvUODu-241" value="완료" style="text;html=1;strokeColor=none;fillColor=none;align=center;verticalAlign=middle;whiteSpace=wrap;rounded=0;" parent="WIyWlLk6GJQsqaUBKTNV-1" vertex="1">
          <mxGeometry x="1753" y="1740" width="60" height="30" as="geometry" />
        </mxCell>
        <mxCell id="vF1I7pQP9UA65ckvUODu-242" value="취소" style="text;html=1;strokeColor=none;fillColor=none;align=center;verticalAlign=middle;whiteSpace=wrap;rounded=0;" parent="WIyWlLk6GJQsqaUBKTNV-1" vertex="1">
          <mxGeometry x="1895.94" y="1634" width="60" height="30" as="geometry" />
        </mxCell>
        <mxCell id="vF1I7pQP9UA65ckvUODu-243" value="이전" style="text;html=1;strokeColor=none;fillColor=none;align=center;verticalAlign=middle;whiteSpace=wrap;rounded=0;" parent="WIyWlLk6GJQsqaUBKTNV-1" vertex="1">
          <mxGeometry x="1895.94" y="2070" width="60" height="30" as="geometry" />
        </mxCell>
        <mxCell id="vF1I7pQP9UA65ckvUODu-244" value="결제하기" style="text;html=1;strokeColor=none;fillColor=none;align=center;verticalAlign=middle;whiteSpace=wrap;rounded=0;" parent="WIyWlLk6GJQsqaUBKTNV-1" vertex="1">
          <mxGeometry x="1850.03" y="2140" width="60" height="30" as="geometry" />
        </mxCell>
        <mxCell id="vF1I7pQP9UA65ckvUODu-245" style="edgeStyle=orthogonalEdgeStyle;rounded=0;orthogonalLoop=1;jettySize=auto;html=1;entryX=0.671;entryY=0.168;entryDx=0;entryDy=0;entryPerimeter=0;" parent="WIyWlLk6GJQsqaUBKTNV-1" source="vF1I7pQP9UA65ckvUODu-62" target="vF1I7pQP9UA65ckvUODu-80" edge="1">
          <mxGeometry relative="1" as="geometry" />
        </mxCell>
        <mxCell id="vF1I7pQP9UA65ckvUODu-255" style="edgeStyle=orthogonalEdgeStyle;rounded=0;orthogonalLoop=1;jettySize=auto;html=1;entryX=0.5;entryY=0;entryDx=0;entryDy=0;exitX=0.5;exitY=1;exitDx=0;exitDy=0;" parent="WIyWlLk6GJQsqaUBKTNV-1" source="vF1I7pQP9UA65ckvUODu-246" target="vF1I7pQP9UA65ckvUODu-250" edge="1">
          <mxGeometry relative="1" as="geometry" />
        </mxCell>
        <mxCell id="vF1I7pQP9UA65ckvUODu-267" style="edgeStyle=orthogonalEdgeStyle;rounded=0;orthogonalLoop=1;jettySize=auto;html=1;exitX=1;exitY=0.5;exitDx=0;exitDy=0;" parent="WIyWlLk6GJQsqaUBKTNV-1" source="vF1I7pQP9UA65ckvUODu-246" target="vF1I7pQP9UA65ckvUODu-268" edge="1">
          <mxGeometry relative="1" as="geometry">
            <mxPoint x="2000" y="2550" as="targetPoint" />
          </mxGeometry>
        </mxCell>
        <mxCell id="vF1I7pQP9UA65ckvUODu-246" value="카드 결제 / 모바일 상품권" style="rhombus;whiteSpace=wrap;html=1;" parent="WIyWlLk6GJQsqaUBKTNV-1" vertex="1">
          <mxGeometry x="1754.65" y="2330" width="177.03" height="100" as="geometry" />
        </mxCell>
        <mxCell id="vF1I7pQP9UA65ckvUODu-279" style="edgeStyle=orthogonalEdgeStyle;rounded=0;orthogonalLoop=1;jettySize=auto;html=1;entryX=0.5;entryY=0;entryDx=0;entryDy=0;exitX=0.25;exitY=1;exitDx=0;exitDy=0;" parent="WIyWlLk6GJQsqaUBKTNV-1" source="vF1I7pQP9UA65ckvUODu-250" target="vF1I7pQP9UA65ckvUODu-280" edge="1">
          <mxGeometry relative="1" as="geometry">
            <mxPoint x="1440" y="2600" as="targetPoint" />
          </mxGeometry>
        </mxCell>
        <mxCell id="vF1I7pQP9UA65ckvUODu-289" style="edgeStyle=orthogonalEdgeStyle;rounded=0;orthogonalLoop=1;jettySize=auto;html=1;entryX=0.801;entryY=0.307;entryDx=0;entryDy=0;exitX=0.75;exitY=1;exitDx=0;exitDy=0;entryPerimeter=0;" parent="WIyWlLk6GJQsqaUBKTNV-1" target="vF1I7pQP9UA65ckvUODu-276" edge="1">
          <mxGeometry relative="1" as="geometry">
            <mxPoint x="1602.5000000000002" y="2530" as="sourcePoint" />
            <mxPoint x="1597.4999999999998" y="2890" as="targetPoint" />
            <Array as="points">
              <mxPoint x="1603" y="2890" />
            </Array>
          </mxGeometry>
        </mxCell>
        <mxCell id="vF1I7pQP9UA65ckvUODu-250" value="바코드 스캔" style="shape=parallelogram;perimeter=parallelogramPerimeter;whiteSpace=wrap;html=1;fixedSize=1;" parent="WIyWlLk6GJQsqaUBKTNV-1" vertex="1">
          <mxGeometry x="1510.0000000000002" y="2490" width="120" height="60" as="geometry" />
        </mxCell>
        <mxCell id="vF1I7pQP9UA65ckvUODu-260" value="모바일 상품권" style="text;html=1;strokeColor=none;fillColor=none;align=center;verticalAlign=middle;whiteSpace=wrap;rounded=0;" parent="WIyWlLk6GJQsqaUBKTNV-1" vertex="1">
          <mxGeometry x="1740" y="2430" width="95.97" height="30" as="geometry" />
        </mxCell>
        <mxCell id="vF1I7pQP9UA65ckvUODu-265" style="edgeStyle=orthogonalEdgeStyle;rounded=0;orthogonalLoop=1;jettySize=auto;html=1;exitX=0;exitY=0.5;exitDx=0;exitDy=0;entryX=0;entryY=0.5;entryDx=0;entryDy=0;" parent="WIyWlLk6GJQsqaUBKTNV-1" source="vF1I7pQP9UA65ckvUODu-280" target="vF1I7pQP9UA65ckvUODu-246" edge="1">
          <mxGeometry relative="1" as="geometry">
            <Array as="points">
              <mxPoint x="1340" y="2635" />
              <mxPoint x="1340" y="2380" />
            </Array>
          </mxGeometry>
        </mxCell>
        <mxCell id="vF1I7pQP9UA65ckvUODu-285" style="edgeStyle=orthogonalEdgeStyle;rounded=0;orthogonalLoop=1;jettySize=auto;html=1;exitX=0;exitY=0.5;exitDx=0;exitDy=0;entryX=0;entryY=0.5;entryDx=0;entryDy=0;" parent="WIyWlLk6GJQsqaUBKTNV-1" source="vF1I7pQP9UA65ckvUODu-264" target="vF1I7pQP9UA65ckvUODu-250" edge="1">
          <mxGeometry relative="1" as="geometry">
            <Array as="points">
              <mxPoint x="1300" y="2834" />
              <mxPoint x="1300" y="2520" />
            </Array>
          </mxGeometry>
        </mxCell>
        <mxCell id="vF1I7pQP9UA65ckvUODu-287" style="edgeStyle=orthogonalEdgeStyle;rounded=0;orthogonalLoop=1;jettySize=auto;html=1;entryX=0;entryY=0;entryDx=0;entryDy=0;" parent="WIyWlLk6GJQsqaUBKTNV-1" source="vF1I7pQP9UA65ckvUODu-264" target="vF1I7pQP9UA65ckvUODu-276" edge="1">
          <mxGeometry relative="1" as="geometry" />
        </mxCell>
        <mxCell id="vF1I7pQP9UA65ckvUODu-264" value="확인 / 취소" style="rhombus;whiteSpace=wrap;html=1;" parent="WIyWlLk6GJQsqaUBKTNV-1" vertex="1">
          <mxGeometry x="1387.5" y="2800" width="125" height="67.5" as="geometry" />
        </mxCell>
        <mxCell id="vF1I7pQP9UA65ckvUODu-266" value="이전" style="text;html=1;strokeColor=none;fillColor=none;align=center;verticalAlign=middle;whiteSpace=wrap;rounded=0;" parent="WIyWlLk6GJQsqaUBKTNV-1" vertex="1">
          <mxGeometry x="1327.5" y="2610" width="60" height="30" as="geometry" />
        </mxCell>
        <mxCell id="vF1I7pQP9UA65ckvUODu-277" style="edgeStyle=orthogonalEdgeStyle;rounded=0;orthogonalLoop=1;jettySize=auto;html=1;exitX=0.5;exitY=1;exitDx=0;exitDy=0;entryX=1;entryY=0;entryDx=0;entryDy=0;" parent="WIyWlLk6GJQsqaUBKTNV-1" source="vF1I7pQP9UA65ckvUODu-268" target="vF1I7pQP9UA65ckvUODu-271" edge="1">
          <mxGeometry relative="1" as="geometry" />
        </mxCell>
        <mxCell id="vF1I7pQP9UA65ckvUODu-268" value="카드 결제" style="shape=parallelogram;perimeter=parallelogramPerimeter;whiteSpace=wrap;html=1;fixedSize=1;" parent="WIyWlLk6GJQsqaUBKTNV-1" vertex="1">
          <mxGeometry x="1933.6100000000001" y="2530" width="120" height="60" as="geometry" />
        </mxCell>
        <mxCell id="vF1I7pQP9UA65ckvUODu-293" value="" style="edgeStyle=orthogonalEdgeStyle;rounded=0;orthogonalLoop=1;jettySize=auto;html=1;" parent="WIyWlLk6GJQsqaUBKTNV-1" source="vF1I7pQP9UA65ckvUODu-269" target="WIyWlLk6GJQsqaUBKTNV-11" edge="1">
          <mxGeometry relative="1" as="geometry" />
        </mxCell>
        <mxCell id="vF1I7pQP9UA65ckvUODu-269" value="주문표 출력" style="shape=parallelogram;perimeter=parallelogramPerimeter;whiteSpace=wrap;html=1;fixedSize=1;" parent="WIyWlLk6GJQsqaUBKTNV-1" vertex="1">
          <mxGeometry x="1750.06" y="3180" width="137.48" height="60" as="geometry" />
        </mxCell>
        <mxCell id="vF1I7pQP9UA65ckvUODu-273" style="edgeStyle=orthogonalEdgeStyle;rounded=0;orthogonalLoop=1;jettySize=auto;html=1;exitX=0.5;exitY=1;exitDx=0;exitDy=0;entryX=0.25;entryY=0;entryDx=0;entryDy=0;" parent="WIyWlLk6GJQsqaUBKTNV-1" source="vF1I7pQP9UA65ckvUODu-270" target="vF1I7pQP9UA65ckvUODu-269" edge="1">
          <mxGeometry relative="1" as="geometry" />
        </mxCell>
        <mxCell id="vF1I7pQP9UA65ckvUODu-270" value="영수증 출력" style="shape=parallelogram;perimeter=parallelogramPerimeter;whiteSpace=wrap;html=1;fixedSize=1;" parent="WIyWlLk6GJQsqaUBKTNV-1" vertex="1">
          <mxGeometry x="1670" y="3070" width="120" height="60" as="geometry" />
        </mxCell>
        <mxCell id="vF1I7pQP9UA65ckvUODu-272" style="edgeStyle=orthogonalEdgeStyle;rounded=0;orthogonalLoop=1;jettySize=auto;html=1;exitX=0;exitY=0.5;exitDx=0;exitDy=0;entryX=0.5;entryY=0;entryDx=0;entryDy=0;" parent="WIyWlLk6GJQsqaUBKTNV-1" source="vF1I7pQP9UA65ckvUODu-271" target="vF1I7pQP9UA65ckvUODu-270" edge="1">
          <mxGeometry relative="1" as="geometry" />
        </mxCell>
        <mxCell id="vF1I7pQP9UA65ckvUODu-274" style="edgeStyle=orthogonalEdgeStyle;rounded=0;orthogonalLoop=1;jettySize=auto;html=1;exitX=0.5;exitY=1;exitDx=0;exitDy=0;entryX=0.75;entryY=0;entryDx=0;entryDy=0;" parent="WIyWlLk6GJQsqaUBKTNV-1" source="vF1I7pQP9UA65ckvUODu-271" target="vF1I7pQP9UA65ckvUODu-269" edge="1">
          <mxGeometry relative="1" as="geometry" />
        </mxCell>
        <mxCell id="vF1I7pQP9UA65ckvUODu-271" value="영수증 출력&lt;br&gt;예 / 아니오" style="rhombus;whiteSpace=wrap;html=1;" parent="WIyWlLk6GJQsqaUBKTNV-1" vertex="1">
          <mxGeometry x="1773.61" y="2970" width="160" height="80" as="geometry" />
        </mxCell>
        <mxCell id="vF1I7pQP9UA65ckvUODu-290" style="edgeStyle=orthogonalEdgeStyle;rounded=0;orthogonalLoop=1;jettySize=auto;html=1;exitX=0;exitY=0.5;exitDx=0;exitDy=0;entryX=0;entryY=0.5;entryDx=0;entryDy=0;" parent="WIyWlLk6GJQsqaUBKTNV-1" source="vF1I7pQP9UA65ckvUODu-276" target="vF1I7pQP9UA65ckvUODu-246" edge="1">
          <mxGeometry relative="1" as="geometry">
            <Array as="points">
              <mxPoint x="1230" y="2930" />
              <mxPoint x="1230" y="2380" />
            </Array>
          </mxGeometry>
        </mxCell>
        <mxCell id="vF1I7pQP9UA65ckvUODu-292" style="edgeStyle=orthogonalEdgeStyle;rounded=0;orthogonalLoop=1;jettySize=auto;html=1;exitX=1;exitY=0.5;exitDx=0;exitDy=0;entryX=0;entryY=0;entryDx=0;entryDy=0;" parent="WIyWlLk6GJQsqaUBKTNV-1" source="vF1I7pQP9UA65ckvUODu-276" target="vF1I7pQP9UA65ckvUODu-271" edge="1">
          <mxGeometry relative="1" as="geometry">
            <Array as="points">
              <mxPoint x="1814" y="2930" />
            </Array>
          </mxGeometry>
        </mxCell>
        <mxCell id="vF1I7pQP9UA65ckvUODu-276" value="상품권 사용 여부&lt;br&gt;네 / 아니오" style="rhombus;whiteSpace=wrap;html=1;" parent="WIyWlLk6GJQsqaUBKTNV-1" vertex="1">
          <mxGeometry x="1490" y="2890" width="140" height="80" as="geometry" />
        </mxCell>
        <mxCell id="vF1I7pQP9UA65ckvUODu-281" style="edgeStyle=orthogonalEdgeStyle;rounded=0;orthogonalLoop=1;jettySize=auto;html=1;exitX=0.5;exitY=1;exitDx=0;exitDy=0;" parent="WIyWlLk6GJQsqaUBKTNV-1" source="vF1I7pQP9UA65ckvUODu-280" target="vF1I7pQP9UA65ckvUODu-282" edge="1">
          <mxGeometry relative="1" as="geometry">
            <mxPoint x="1450.1176470588234" y="2710" as="targetPoint" />
          </mxGeometry>
        </mxCell>
        <mxCell id="vF1I7pQP9UA65ckvUODu-280" value="번호 수기 입력 / 이전" style="rhombus;whiteSpace=wrap;html=1;" parent="WIyWlLk6GJQsqaUBKTNV-1" vertex="1">
          <mxGeometry x="1380" y="2600" width="140" height="70" as="geometry" />
        </mxCell>
        <mxCell id="vF1I7pQP9UA65ckvUODu-283" style="edgeStyle=orthogonalEdgeStyle;rounded=0;orthogonalLoop=1;jettySize=auto;html=1;exitX=0.5;exitY=1;exitDx=0;exitDy=0;entryX=0.5;entryY=0;entryDx=0;entryDy=0;" parent="WIyWlLk6GJQsqaUBKTNV-1" source="vF1I7pQP9UA65ckvUODu-282" target="vF1I7pQP9UA65ckvUODu-264" edge="1">
          <mxGeometry relative="1" as="geometry" />
        </mxCell>
        <mxCell id="vF1I7pQP9UA65ckvUODu-282" value="번호 입력" style="shape=parallelogram;perimeter=parallelogramPerimeter;whiteSpace=wrap;html=1;fixedSize=1;" parent="WIyWlLk6GJQsqaUBKTNV-1" vertex="1">
          <mxGeometry x="1389.9976470588235" y="2700" width="120" height="60" as="geometry" />
        </mxCell>
        <mxCell id="vF1I7pQP9UA65ckvUODu-286" value="취소" style="text;html=1;strokeColor=none;fillColor=none;align=center;verticalAlign=middle;whiteSpace=wrap;rounded=0;" parent="WIyWlLk6GJQsqaUBKTNV-1" vertex="1">
          <mxGeometry x="1340" y="2800" width="60" height="30" as="geometry" />
        </mxCell>
        <mxCell id="vF1I7pQP9UA65ckvUODu-291" value="아니오" style="text;html=1;strokeColor=none;fillColor=none;align=center;verticalAlign=middle;whiteSpace=wrap;rounded=0;" parent="WIyWlLk6GJQsqaUBKTNV-1" vertex="1">
          <mxGeometry x="1440" y="2900" width="60" height="30" as="geometry" />
        </mxCell>
        <mxCell id="DI9iRNUoyA58QHv9mwf--0" value="네" style="text;html=1;strokeColor=none;fillColor=none;align=center;verticalAlign=middle;whiteSpace=wrap;rounded=0;" vertex="1" parent="WIyWlLk6GJQsqaUBKTNV-1">
          <mxGeometry x="1620" y="2900" width="60" height="30" as="geometry" />
        </mxCell>
        <mxCell id="DI9iRNUoyA58QHv9mwf--1" value="네" style="text;html=1;strokeColor=none;fillColor=none;align=center;verticalAlign=middle;whiteSpace=wrap;rounded=0;" vertex="1" parent="WIyWlLk6GJQsqaUBKTNV-1">
          <mxGeometry x="1670" y="3030" width="60" height="30" as="geometry" />
        </mxCell>
        <mxCell id="DI9iRNUoyA58QHv9mwf--2" value="아니오" style="text;html=1;strokeColor=none;fillColor=none;align=center;verticalAlign=middle;whiteSpace=wrap;rounded=0;" vertex="1" parent="WIyWlLk6GJQsqaUBKTNV-1">
          <mxGeometry x="1850.03" y="3050" width="60" height="30" as="geometry" />
        </mxCell>
        <mxCell id="DI9iRNUoyA58QHv9mwf--3" value="카드결제" style="text;html=1;strokeColor=none;fillColor=none;align=center;verticalAlign=middle;whiteSpace=wrap;rounded=0;" vertex="1" parent="WIyWlLk6GJQsqaUBKTNV-1">
          <mxGeometry x="1933.6100000000001" y="2350" width="60" height="30" as="geometry" />
        </mxCell>
        <mxCell id="DI9iRNUoyA58QHv9mwf--4" value="셀프 서비스" style="text;html=1;strokeColor=none;fillColor=none;align=center;verticalAlign=middle;whiteSpace=wrap;rounded=0;" vertex="1" parent="WIyWlLk6GJQsqaUBKTNV-1">
          <mxGeometry x="1910.03" y="2200" width="99.97" height="30" as="geometry" />
        </mxCell>
        <mxCell id="DI9iRNUoyA58QHv9mwf--5" value="테이블 서비스" style="text;html=1;strokeColor=none;fillColor=none;align=center;verticalAlign=middle;whiteSpace=wrap;rounded=0;" vertex="1" parent="WIyWlLk6GJQsqaUBKTNV-1">
          <mxGeometry x="1676.02" y="2200" width="99.97" height="30" as="geometry" />
        </mxCell>
      </root>
    </mxGraphModel>
  </diagram>
</mxfile>
